SplineFontDB: 3.0
FontName: Besley-it-Book
FullName: Besley* Book
FamilyName: Besley*
Weight: Book
Copyright: Copyright (c) 2017, Owen Earl,,, (EwonRael@yahoo.com)
Version: 001.1
ItalicAngle: 0
UnderlinePosition: -100
UnderlineWidth: 50
Ascent: 800
Descent: 200
InvalidEm: 0
LayerCount: 2
Layer: 0 0 "Back" 1
Layer: 1 0 "Fore" 0
XUID: [1021 31 -699969567 16487490]
FSType: 0
OS2Version: 0
OS2_WeightWidthSlopeOnly: 0
OS2_UseTypoMetrics: 1
CreationTime: 1460762150
ModificationTime: 1500758461
PfmFamily: 17
TTFWeight: 400
TTFWidth: 5
LineGap: 100
VLineGap: 0
OS2TypoAscent: 800
OS2TypoAOffset: 0
OS2TypoDescent: -200
OS2TypoDOffset: 0
OS2TypoLinegap: 100
OS2WinAscent: 900
OS2WinAOffset: 0
OS2WinDescent: 300
OS2WinDOffset: 0
HheadAscent: 900
HheadAOffset: 0
HheadDescent: -200
HheadDOffset: 0
OS2CapHeight: 700
OS2XHeight: 460
OS2FamilyClass: 1024
OS2Vendor: 'PfEd'
OS2UnicodeRanges: 00000001.00000000.00000000.00000000
Lookup: 5 0 0 "'calt' Contextual Alternates lookup 1" { "'calt' Contextual Alternates lookup 1-1"  } ['calt' ('DFLT' <'dflt' > 'grek' <'dflt' > 'latn' <'dflt' > ) ]
Lookup: 1 0 0 "'ss01' Style Set 1 lookup 2" { "'ss01' Style Set 1 lookup 2-1"  } ['ss01' ('DFLT' <'dflt' > 'grek' <'dflt' > 'latn' <'dflt' > ) ]
Lookup: 4 0 1 "'liga' Standard Ligatures lookup 0" { "Not your mama's contextual ligatures"  } ['liga' ('DFLT' <'dflt' > 'grek' <'dflt' > 'latn' <'dflt' > ) ]
Lookup: 258 0 0 "Kern like there's no tomorrow" { "Get it right" [150,0,5] } ['kern' ('DFLT' <'dflt' > 'grek' <'dflt' > 'latn' <'dflt' > ) ]
MarkAttachClasses: 1
DEI: 91125
KernClass2: 19 21 "Get it right"
 3 A L
 15 B R G C U J S N
 3 D O
 7 E H I Z
 5 F P Y
 3 K X
 3 Q M
 3 V W
 9 a h m n u
 7 b e o p
 3 c q
 7 d j l i
 3 k x
 9 r v w y g
 68 quotedbl quotesingle quoteleft quoteright quotedblleft quotedblright
 1 f
 1 t
 1 T
 3 A J
 31 B D E F H I K L M N P R uniFFFD
 7 C G O Q
 3 S Z
 3 V W
 1 U
 1 X
 1 Y
 5 a g s
 7 b h k l
 9 c d e o q
 3 f i
 5 p t u
 5 m n r
 3 v w
 1 z
 12 comma period

StartChar: ampersand
Encoding: 38 38 0
Width: 870
Flags: HMW
LayerCount: 2
Fore
SplineSet
695 405 m 1
 665 192 503 -10 270 -10 c 0
 137 -10 21 57 21 200 c 1
 131 220 l 1
 131 108 211 55 305 55 c 0
 479 55 620 243 640 405 c 1
 695 405 l 1
545 460 m 1
 785 460 l 1
 785 405 l 1
 545 405 l 1
 545 460 l 1
21 200 m 1
 21 490 472 400 472 640 c 1
 566 635 l 1
 566 395 131 460 131 220 c 1
 21 200 l 1
560 55 m 1
 770 55 l 1
 770 0 l 1
 560 0 l 1
 560 55 l 1
656 0 m 1
 536 0 l 1
 225 490 l 2
 200 529 179 578 179 613 c 0
 179 703 264 760 380 760 c 0
 487 760 566 715 566 635 c 1
 472 640 l 1
 472 687 434 720 379 720 c 0
 322 720 277 693 277 640 c 0
 277 605 304 555 345 490 c 2
 656 0 l 1
EndSplineSet
EndChar

StartChar: period
Encoding: 46 46 1
Width: 200
Flags: MW
LayerCount: 2
Fore
SplineSet
40 50 m 0
 40 83 67 110 100 110 c 0
 133 110 160 83 160 50 c 0
 160 17 133 -10 100 -10 c 0
 67 -10 40 17 40 50 c 0
EndSplineSet
EndChar

StartChar: zero
Encoding: 48 48 2
Width: 530
Flags: HMW
LayerCount: 2
Fore
SplineSet
145 280 m 4
 145 128 181 40 265 40 c 4
 359 40 385 128 385 280 c 4
 385 432 359 520 265 520 c 4
 181 520 145 432 145 280 c 4
35 280 m 4
 35 473 142 570 265 570 c 4
 398 570 495 473 495 280 c 4
 495 87 378 -10 265 -10 c 4
 142 -10 35 87 35 280 c 4
EndSplineSet
EndChar

StartChar: one
Encoding: 49 49 3
Width: 530
VWidth: 1155
Flags: HMW
LayerCount: 2
Fore
SplineSet
72 465 m 21
 188 465 225 468 275 590 c 13
 275 465 l 5
 72 465 l 21
275 465 m 5
 275 590 l 5
 320 590 l 5
 320 465 l 5
 275 465 l 5
72 465 m 5
 320 465 l 5
 320 410 l 5
 72 410 l 5
 72 465 l 5
55 55 m 5
 225 55 l 5
 225 0 l 5
 55 0 l 5
 55 55 l 5
320 55 m 5
 480 55 l 5
 480 0 l 5
 320 0 l 5
 320 55 l 5
225 420 m 5
 320 420 l 5
 320 0 l 5
 225 0 l 5
 225 420 l 5
EndSplineSet
EndChar

StartChar: two
Encoding: 50 50 4
Width: 530
VWidth: 1155
Flags: HMW
LayerCount: 2
Fore
SplineSet
500 157 m 1
 500 12 449 -30 360 -30 c 4
 253 -30 228 30 145 30 c 4
 104 30 89 10 79 -20 c 1
 50 -20 l 1
 70 54 97 97 180 97 c 0
 280 97 290 63 366 63 c 0
 429 63 453 95 453 157 c 1
 500 157 l 1
135 472 m 5
 135 449 167 444 167 408 c 4
 167 371 137 350 110 350 c 4
 81 350 46 368 46 416 c 5
 135 472 l 5
46 416 m 1
 46 498 140 570 262 570 c 0
 383 570 488 520 488 410 c 1
 377 420 l 1
 377 494 341 528 262 528 c 0
 188 528 135 499 135 472 c 1
 46 416 l 1
242 269 m 0
 344.8359375 312.935546875 377 356 377 420 c 1
 488 410 l 1
 488 330 420.857421875 259.379882812 257 210 c 0
 150.1171875 177.790039062 74 80 74 -20 c 1
 30 -20 l 1
 30 127 124.060546875 218.611328125 242 269 c 0
EndSplineSet
EndChar

StartChar: three
Encoding: 51 51 5
Width: 530
VWidth: 1155
Flags: HMW
LayerCount: 2
Fore
SplineSet
495 40 m 5
 394 40 l 5
 394 114 366 211 197 211 c 5
 197 245 l 5
 438 245 495 150 495 40 c 5
60 412 m 5
 60 494 124 570 266 570 c 4
 367 570 475 521 475 401 c 5
 374 401 l 5
 374 475 335 528 246 528 c 4
 182 528 149 495 149 468 c 5
 60 412 l 5
149 468 m 5
 149 445 181 440 181 404 c 4
 181 367 151 346 124 346 c 4
 95 346 60 364 60 412 c 5
 149 468 l 5
30 -1 m 5
 119 -57 l 5
 119 -84 162 -118 246 -118 c 4
 355 -118 394 -34 394 40 c 5
 495 40 l 5
 495 -70 407 -160 256 -160 c 4
 104 -160 30 -83 30 -1 c 5
119 -57 m 5
 30 -1 l 5
 30 47 65 65 94 65 c 4
 121 65 151 44 151 7 c 4
 151 -29 119 -34 119 -57 c 5
197 226 m 5
 197 260 l 5
 366 260 374 337 374 401 c 5
 475 401 l 5
 475 301 438 226 197 226 c 5
EndSplineSet
EndChar

StartChar: four
Encoding: 52 52 6
Width: 530
VWidth: 1155
Flags: HMW
LayerCount: 2
Fore
SplineSet
325 259 m 1
 420 259 l 1
 420 -150 l 1
 325 -150 l 1
 325 259 l 1
93 105 m 1
 35 105 l 1
 95 255 295 420 295 560 c 5
 383 560 l 1
 383 380 153 255 93 105 c 1
70 120 m 1
 510 120 l 1
 510 65 l 1
 70 65 l 1
 70 120 l 1
35 105 m 1
 70 105 l 1
 70 65 l 1
 35 65 l 1
 35 105 l 1
325 -95 m 1
 325 -150 l 1
 230 -150 l 1
 230 -95 l 1
 325 -95 l 1
495 -95 m 1
 495 -150 l 1
 420 -150 l 1
 420 -95 l 1
 495 -95 l 1
395 259 m 1
 395 370 l 1
 420 370 l 1
 420 259 l 1
 395 259 l 1
325 259 m 1
 360 280 375 306 395 370 c 9
 395 259 l 1
 325 259 l 1
EndSplineSet
EndChar

StartChar: five
Encoding: 53 53 7
Width: 530
VWidth: 1155
Flags: HMW
LayerCount: 2
Fore
SplineSet
154 565 m 1
 112 197 l 1
 62 197 l 1
 104 565 l 1
 154 565 l 1
495 80 m 1
 394 60 l 1
 394 194 335 261 246 261 c 0
 183 261 151 247 116 197 c 1
 62 197 l 1
 103 274 147 310 258 310 c 0
 419 310 495 220 495 80 c 1
40 -11 m 1
 129 -67 l 1
 129 -94 172 -118 226 -118 c 0
 325 -118 394 -44 394 60 c 1
 495 80 l 1
 495 -70 377 -160 236 -160 c 0
 114 -160 40 -93 40 -11 c 1
129 -67 m 1
 40 -11 l 1
 40 37 75 55 104 55 c 0
 131 55 161 34 161 -3 c 0
 161 -39 129 -44 129 -67 c 1
104 475 m 1
 104 565 l 1
 247 565 l 2
 371 565 383 546 420 597 c 1
 465 597 l 1
 458 565 l 2
 440.098632812 483.1640625 422 475 185 475 c 6
 104 475 l 1
EndSplineSet
EndChar

StartChar: six
Encoding: 54 54 8
Width: 530
VWidth: 1155
Flags: HMW
LayerCount: 2
Fore
SplineSet
30 350 m 1
 130 350 l 5
 130 260 l 1
 60 240 l 1
 30 350 l 1
500 230 m 1
 400 230 l 1
 400 344 353 411 274 411 c 0
 191 411 130 340 130 260 c 1
 96 260 l 1
 96 367 165 460 296 460 c 0
 407 460 500 380 500 230 c 1
353 651 m 1
 450 601 l 1
 450 553 415 535 386 535 c 0
 359 535 329 556 329 593 c 0
 329 629 353 638 353 651 c 1
450 601 m 1
 353 651 l 1
 353 664 338 678 299 678 c 4
 170 678 130 514 130 350 c 5
 30 350 l 5
 30 550 133 720 294 720 c 4
 376 720 450 683 450 601 c 1
500 230 m 1
 500 110 410 -10 269 -10 c 0
 108 -10 30 110 30 350 c 1
 130 260 l 1
 130 156 180 35 279 35 c 0
 368 35 400 146 400 230 c 1
 500 230 l 1
EndSplineSet
EndChar

StartChar: seven
Encoding: 55 55 9
Width: 540
VWidth: 1155
Flags: HMW
LayerCount: 2
Fore
SplineSet
35 393 m 1
 35 538 86 580 175 580 c 0
 272 580 307 520 390 520 c 0
 431 520 446 540 456 570 c 1
 485 570 l 1
 465 496 438 453 355 453 c 0
 255 453 245 487 169 487 c 0
 106 487 82 455 82 393 c 1
 35 393 l 1
  Spiro
    35 393 v
    51.486 505.843 o
    99.2104 563.775 o
    175 580 o
    277.555 564.471 o
    336.754 535.529 o
    390 520 o
    423.085 526.284 o
    443.571 543.726 o
    456 570 v
    485 570 v
    460.882 506.83 o
    421.097 466.862 o
    355 453 o
    279.28 461.8 o
    228.728 478.2 o
    169 487 o
    118.483 476.429 o
    90.5379 444.884 o
    82 393 v
    0 0 z
  EndSpiro
279 42 m 1
 279 -31 312 -46 312 -92 c 0
 312 -129 292 -160 248 -160 c 0
 209 -160 182 -123 182 -54 c 1
 279 42 l 1
333 218 m 0
 286.8359375 124.239257812 279 86 279 42 c 1
 182 -54 l 1
 182 35 207.767578125 127.19921875 274 231 c 0
 352.5 354.02734375 456 520 456 570 c 1
 509 570 l 5
 509 503 401.41015625 356.943359375 333 218 c 0
EndSplineSet
EndChar

StartChar: eight
Encoding: 56 56 10
Width: 530
VWidth: 1155
Flags: HMW
LayerCount: 2
Fore
SplineSet
160 530 m 0
 160 456 196 385 265 385 c 0
 334 385 370 456 370 530 c 0
 370 604 334 675 265 675 c 0
 196 675 160 604 160 530 c 0
60 530 m 0
 60 640 144 720 265 720 c 0
 386 720 470 640 470 530 c 0
 470 420 386 355 265 355 c 0
 144 355 60 420 60 530 c 0
140 190 m 0
 140 106 176 35 265 35 c 0
 354 35 390 106 390 190 c 0
 390 274 354 345 265 345 c 0
 176 345 140 274 140 190 c 0
40 190 m 0
 40 310 124 375 265 375 c 0
 406 375 490 310 490 190 c 0
 490 70 406 -10 265 -10 c 0
 124 -10 40 70 40 190 c 0
EndSplineSet
EndChar

StartChar: A
Encoding: 65 65 12
Width: 920
Flags: HMW
LayerCount: 2
Fore
SplineSet
230 275 m 1
 690 275 l 1
 690 220 l 1
 230 220 l 1
 230 275 l 1
560 55 m 1
 890 55 l 1
 890 0 l 1
 560 0 l 1
 560 55 l 1
30 55 m 1
 310 55 l 1
 310 0 l 1
 30 0 l 1
 30 55 l 1
425 705 m 5
 495 765 l 5
 800 0 l 1
 690 0 l 1
 425 705 l 5
436 765 m 5
 495 765 l 5
 169 0 l 1
 105 0 l 1
 436 765 l 5
EndSplineSet
EndChar

StartChar: B
Encoding: 66 66 13
Width: 770
Flags: HMW
LayerCount: 2
Fore
SplineSet
430 415 m 1
 506 415 580 456 580 555 c 0
 580 654 506 695 430 695 c 1
 430 750 l 1
 581 750 680 685 680 555 c 0
 680 425 591 380 430 380 c 1
 430 415 l 1
150 750 m 1
 245 750 l 1
 245 0 l 1
 150 0 l 1
 150 750 l 1
40 750 m 1
 150 750 l 1
 150 695 l 1
 40 695 l 1
 40 750 l 1
40 55 m 5
 150 55 l 5
 150 0 l 1
 40 0 l 1
 40 55 l 5
240 415 m 1
 450 415 l 1
 450 360 l 1
 240 360 l 1
 240 415 l 1
240 750 m 1
 430 750 l 1
 430 695 l 1
 240 695 l 1
 240 750 l 1
240 55 m 5
 440 55 l 5
 450 0 l 1
 240 0 l 1
 240 55 l 5
440 55 m 5
 526 55 600 111 600 210 c 0
 600 309 526 360 440 360 c 1
 450 395 l 1
 611 395 710 340 710 210 c 0
 710 60 611 0 450 0 c 1
 440 55 l 5
EndSplineSet
EndChar

StartChar: C
Encoding: 67 67 14
Width: 785
Flags: HMW
LayerCount: 2
Fore
SplineSet
660 620 m 17
 700 755 l 9
 700 550 l 1
 660 620 l 17
700 495 m 1
 700 755 l 1
 745 755 l 1
 745 495 l 1
 700 495 l 1
735 495 m 1
 690 495 l 1
 680 597 584 702 440 702 c 4
 266 702 170 557 170 375 c 1
 55 375 l 1
 55 598 232 760 435 760 c 0
 628 760 735 598 735 495 c 1
755 295 m 1
 745 122 623 -10 420 -10 c 0
 207 -10 55 152 55 375 c 1
 170 375 l 1
 170 193 256 49 430 49 c 0
 594 49 690 173 700 295 c 1
 755 295 l 1
EndSplineSet
EndChar

StartChar: D
Encoding: 68 68 15
Width: 825
Flags: MW
LayerCount: 2
Fore
SplineSet
40 55 m 5
 150 55 l 5
 150 0 l 1
 40 0 l 1
 40 55 l 5
40 750 m 1
 150 750 l 1
 150 695 l 1
 40 695 l 1
 40 750 l 1
150 750 m 1
 245 750 l 1
 245 0 l 1
 150 0 l 1
 150 750 l 1
410 0 m 2
 245 0 l 1
 245 55 l 5
 410 55 l 6
 594 55 655 193 655 375 c 0
 655 557 584 695 410 695 c 2
 245 695 l 1
 245 750 l 1
 410 750 l 2
 633 750 770 588 770 375 c 0
 770 162 623 0 410 0 c 2
EndSplineSet
EndChar

StartChar: E
Encoding: 69 69 16
Width: 725
Flags: HMW
LayerCount: 2
Fore
SplineSet
330 408 m 17
 417 408 450 456 450 523 c 9
 450 408 l 1
 330 408 l 17
450 248 m 21
 450 315 417 368 330 368 c 13
 450 368 l 5
 450 248 l 21
475 55 m 17
 612 55 645 98 645 255 c 9
 645 55 l 1
 475 55 l 17
450 248 m 5
 450 368 l 5
 495 368 l 5
 495 248 l 5
 450 248 l 5
450 408 m 1
 450 523 l 1
 495 523 l 1
 495 408 l 1
 450 408 l 1
645 55 m 1
 645 255 l 1
 695 255 l 1
 695 55 l 1
 645 55 l 1
635 515 m 1
 635 695 l 1
 685 695 l 1
 685 515 l 1
 635 515 l 1
245 55 m 1
 695 55 l 1
 695 0 l 1
 245 0 l 1
 245 55 l 1
245 750 m 1
 685 750 l 1
 685 695 l 1
 245 695 l 1
 245 750 l 1
245 408 m 1
 495 408 l 1
 495 368 l 5
 245 368 l 5
 245 408 l 1
40 55 m 1
 150 55 l 1
 150 0 l 1
 40 0 l 1
 40 55 l 1
40 750 m 1
 150 750 l 1
 150 695 l 1
 40 695 l 1
 40 750 l 1
150 750 m 1
 245 750 l 1
 245 0 l 1
 150 0 l 1
 150 750 l 1
635 515 m 17
 635 652 602 695 485 695 c 9
 635 695 l 1
 635 515 l 17
EndSplineSet
EndChar

StartChar: F
Encoding: 70 70 17
Width: 715
Flags: HMW
LayerCount: 2
Fore
SplineSet
245 55 m 1
 365 55 l 1
 365 0 l 1
 245 0 l 1
 245 55 l 1
340 398 m 17
 427 398 460 436 460 503 c 9
 460 398 l 1
 340 398 l 17
460 238 m 21
 460 305 427 348 340 348 c 13
 460 348 l 5
 460 238 l 21
460 238 m 5
 460 348 l 5
 505 348 l 5
 505 238 l 5
 460 238 l 5
460 398 m 1
 460 503 l 1
 505 503 l 1
 505 398 l 1
 460 398 l 1
625 515 m 1
 625 695 l 1
 675 695 l 1
 675 515 l 1
 625 515 l 1
245 750 m 1
 675 750 l 1
 675 695 l 1
 245 695 l 1
 245 750 l 1
245 398 m 1
 505 398 l 1
 505 348 l 5
 245 348 l 5
 245 398 l 1
40 55 m 1
 150 55 l 1
 150 0 l 1
 40 0 l 1
 40 55 l 1
40 750 m 1
 150 750 l 1
 150 695 l 1
 40 695 l 1
 40 750 l 1
150 750 m 1
 245 750 l 1
 245 0 l 1
 150 0 l 1
 150 750 l 1
625 515 m 17
 625 652 592 695 475 695 c 9
 625 695 l 1
 625 515 l 17
EndSplineSet
EndChar

StartChar: G
Encoding: 71 71 18
Width: 875
Flags: HMW
LayerCount: 2
Fore
SplineSet
660 620 m 17
 700 750 l 9
 700 550 l 1
 660 620 l 17
700 495 m 1
 700 750 l 1
 745 750 l 1
 745 495 l 1
 700 495 l 1
735 495 m 1
 690 495 l 1
 680 597 626 704 442 704 c 0
 278 704 170 557 170 375 c 1
 55 375 l 1
 55 598 232 760 435 760 c 0
 628 760 735 628 735 495 c 1
755 215 m 1
 745 122 643 -10 420 -10 c 4
 212 -10 55 152 55 375 c 1
 170 375 l 1
 170 193 256 45 425 45 c 4
 559 45 630 123 650 185 c 1
 755 215 l 1
650 310 m 1
 755 305 l 1
 755 215 l 1
 650 185 l 1
 650 310 l 1
525 370 m 1
 855 370 l 1
 855 305 l 1
 525 305 l 1
 525 370 l 1
EndSplineSet
EndChar

StartChar: H
Encoding: 72 72 19
Width: 890
Flags: MW
LayerCount: 2
Fore
SplineSet
245 415 m 1
 645 415 l 1
 645 360 l 1
 245 360 l 1
 245 415 l 1
525 55 m 1
 645 55 l 1
 645 0 l 1
 525 0 l 1
 525 55 l 1
740 55 m 1
 850 55 l 1
 850 0 l 1
 740 0 l 1
 740 55 l 1
40 55 m 1
 150 55 l 1
 150 0 l 1
 40 0 l 1
 40 55 l 1
245 55 m 1
 365 55 l 1
 365 0 l 1
 245 0 l 1
 245 55 l 1
525 750 m 1
 645 750 l 1
 645 695 l 1
 525 695 l 1
 525 750 l 1
740 750 m 1
 850 750 l 1
 850 695 l 1
 740 695 l 1
 740 750 l 1
40 750 m 1
 150 750 l 1
 150 695 l 1
 40 695 l 1
 40 750 l 1
245 750 m 1
 365 750 l 1
 365 695 l 1
 245 695 l 1
 245 750 l 1
645 750 m 1
 740 750 l 1
 740 0 l 1
 645 0 l 1
 645 750 l 1
150 750 m 1
 245 750 l 1
 245 0 l 1
 150 0 l 1
 150 750 l 1
EndSplineSet
EndChar

StartChar: I
Encoding: 73 73 20
Width: 405
Flags: HMW
LayerCount: 2
Fore
SplineSet
40 55 m 5
 150 55 l 5
 150 0 l 1
 40 0 l 1
 40 55 l 5
245 55 m 5
 365 55 l 5
 365 0 l 1
 245 0 l 1
 245 55 l 5
40 750 m 1
 150 750 l 1
 150 695 l 1
 40 695 l 1
 40 750 l 1
245 750 m 1
 365 750 l 1
 365 695 l 1
 245 695 l 1
 245 750 l 1
150 750 m 1
 245 750 l 1
 245 0 l 1
 150 0 l 1
 150 750 l 1
EndSplineSet
EndChar

StartChar: J
Encoding: 74 74 21
Width: 596
Flags: HMW
LayerCount: 2
Fore
SplineSet
111 135 m 1
 111 135 10 115 10 145 c 0
 10 207 49 240 89 240 c 0
 124 240 153 217 153 181 c 1
 141 160 l 1
 111 135 l 1
109 90 m 1
 19 119 l 1
 29 180 l 1
 153 181 l 1
 153 116 109 132 109 90 c 1
10 145 m 1
 109 90 l 1
 109 73 124 45 206 45 c 4
 297 45 351 100 351 240 c 1
 446 270 l 1
 446 110 367 -10 206 -10 c 0
 69 -10 10 75 10 145 c 1
211 750 m 1
 351 750 l 1
 351 695 l 1
 211 695 l 1
 211 750 l 1
446 750 m 1
 566 750 l 1
 566 695 l 1
 446 695 l 1
 446 750 l 1
351 750 m 1
 446 750 l 1
 446 270 l 1
 351 240 l 1
 351 750 l 1
EndSplineSet
EndChar

StartChar: K
Encoding: 75 75 22
Width: 870
Flags: HMW
LayerCount: 2
Fore
SplineSet
40 55 m 1
 150 55 l 1
 150 0 l 1
 40 0 l 1
 40 55 l 1
245 55 m 1
 365 55 l 1
 365 0 l 1
 245 0 l 1
 245 55 l 1
40 750 m 1
 150 750 l 1
 150 695 l 1
 40 695 l 1
 40 750 l 1
245 750 m 1
 365 750 l 1
 365 695 l 1
 245 695 l 1
 245 750 l 1
150 750 m 1
 245 750 l 1
 245 0 l 1
 150 0 l 1
 150 750 l 1
230 217 m 1
 157 217 l 1
 671 748 l 1
 746 748 l 1
 230 217 l 1
545 55 m 1
 875 55 l 1
 875 0 l 1
 545 0 l 1
 545 55 l 1
810 695 m 1
 510 695 l 1
 510 750 l 1
 810 750 l 1
 810 695 l 1
807 0 m 1
 687 0 l 1
 369 420 l 5
 440 470 l 1
 807 0 l 1
EndSplineSet
EndChar

StartChar: L
Encoding: 76 76 23
Width: 730
Flags: MW
LayerCount: 2
Fore
SplineSet
245 750 m 1
 355 750 l 1
 355 695 l 1
 245 695 l 1
 245 750 l 1
470 55 m 21
 607 55 640 118 640 255 c 9
 640 55 l 1
 470 55 l 21
640 55 m 1
 640 255 l 1
 690 255 l 1
 690 55 l 1
 640 55 l 1
245 55 m 1
 690 55 l 1
 690 0 l 1
 245 0 l 1
 245 55 l 1
40 55 m 1
 150 55 l 1
 150 0 l 1
 40 0 l 1
 40 55 l 1
40 750 m 1
 150 750 l 1
 150 695 l 1
 40 695 l 1
 40 750 l 1
150 750 m 1
 245 750 l 1
 245 0 l 1
 150 0 l 1
 150 750 l 1
EndSplineSet
EndChar

StartChar: M
Encoding: 77 77 24
Width: 1035
Flags: HMW
LayerCount: 2
Fore
SplineSet
531 79 m 1
 476 -10 l 1
 218 750 l 1
 309 750 l 5
 531 79 l 1
540 -10 m 1
 476 -10 l 1
 726 750 l 1
 795 750 l 1
 540 -10 l 1
675 55 m 1
 1000 55 l 1
 1000 0 l 1
 675 0 l 1
 675 55 l 1
35 55 m 1
 330 55 l 1
 330 0 l 1
 35 0 l 1
 35 55 l 1
860 750 m 1
 970 750 l 1
 970 695 l 1
 860 695 l 1
 860 750 l 1
65 750 m 1
 180 750 l 1
 180 695 l 1
 65 695 l 1
 65 750 l 1
770 750 m 1
 860 750 l 1
 890 0 l 1
 795 0 l 1
 770 750 l 1
180 750 m 1
 240 750 l 1
 210 0 l 1
 145 0 l 1
 180 750 l 1
EndSplineSet
EndChar

StartChar: N
Encoding: 78 78 25
Width: 875
Flags: HMW
LayerCount: 2
Fore
SplineSet
750 -10 m 1
 715 -10 l 1
 715 85 l 1
 750 85 l 1
 750 -10 l 1
575 750 m 1
 685 750 l 1
 685 695 l 1
 575 695 l 1
 575 750 l 1
738 105 m 1
 715 -10 l 1
 130 750 l 1
 245 750 l 5
 738 105 l 1
40 55 m 1
 145 55 l 1
 145 0 l 1
 40 0 l 1
 40 55 l 1
210 55 m 1
 325 55 l 1
 325 0 l 1
 210 0 l 1
 210 55 l 1
750 750 m 1
 855 750 l 1
 855 695 l 1
 750 695 l 1
 750 750 l 1
40 750 m 1
 145 750 l 1
 145 695 l 1
 40 695 l 1
 40 750 l 1
685 750 m 1
 750 750 l 1
 750 -10 l 1
 685 50 l 1
 685 750 l 1
145 750 m 1
 210 750 l 1
 210 0 l 1
 145 0 l 1
 145 750 l 1
EndSplineSet
EndChar

StartChar: O
Encoding: 79 79 26
Width: 830
Flags: MW
LayerCount: 2
Fore
SplineSet
170 375 m 4
 170 193 241 40 415 40 c 4
 599 40 660 193 660 375 c 4
 660 557 589 710 415 710 c 4
 241 710 170 557 170 375 c 4
55 375 m 4
 55 588 192 760 415 760 c 4
 638 760 775 588 775 375 c 4
 775 162 628 -10 415 -10 c 4
 192 -10 55 162 55 375 c 4
EndSplineSet
EndChar

StartChar: P
Encoding: 80 80 27
Width: 695
Flags: MW
LayerCount: 2
Fore
SplineSet
245 55 m 5
 355 55 l 5
 355 0 l 1
 245 0 l 1
 245 55 l 5
395 385 m 1
 491 385 545 451 545 540 c 0
 545 629 491 695 395 695 c 1
 395 750 l 1
 576 750 655 670 655 540 c 0
 655 410 576 330 395 330 c 1
 395 385 l 1
150 750 m 1
 245 750 l 1
 245 0 l 1
 150 0 l 1
 150 750 l 1
40 750 m 1
 150 750 l 1
 150 695 l 1
 40 695 l 1
 40 750 l 1
40 55 m 5
 150 55 l 5
 150 0 l 1
 40 0 l 1
 40 55 l 5
245 385 m 1
 395 385 l 1
 395 330 l 1
 245 330 l 1
 245 385 l 1
245 750 m 1
 395 750 l 1
 395 695 l 1
 245 695 l 1
 245 750 l 1
EndSplineSet
EndChar

StartChar: Q
Encoding: 81 81 28
Width: 830
Flags: HMW
LayerCount: 2
Fore
SplineSet
304 65 m 1
 249 100 l 1
 209 121 223 303 362 303 c 0
 537 303 581 -37 668 -37 c 0
 730 -37 755 26 755 82 c 1
 805 82 l 1
 805 82 l 1
 804 -32 754 -125 660 -125 c 0
 491 -125 536 210 364 210 c 0
 284 210 254 113 304 65 c 1
170 375 m 0
 170 193 241 40 415 40 c 0
 599 40 660 193 660 375 c 0
 660 557 589 710 415 710 c 0
 241 710 170 557 170 375 c 0
55 375 m 0
 55 588 192 760 415 760 c 0
 638 760 775 588 775 375 c 0
 775 162 628 -10 415 -10 c 0
 192 -10 55 162 55 375 c 0
EndSplineSet
EndChar

StartChar: R
Encoding: 82 82 29
Width: 775
Flags: HMW
LayerCount: 2
Fore
SplineSet
435 405 m 1
 511 405 585 451 585 550 c 0
 585 649 511 695 435 695 c 1
 435 750 l 1
 616 750 685 660 685 550 c 0
 685 440 626 364 435 364 c 1
 435 405 l 1
245 750 m 1
 435 750 l 1
 435 695 l 1
 245 695 l 1
 245 750 l 1
245 405 m 1
 455 405 l 1
 455 345 l 1
 245 345 l 1
 245 405 l 1
40 55 m 1
 150 55 l 1
 150 0 l 1
 40 0 l 1
 40 55 l 1
40 750 m 1
 150 750 l 1
 150 695 l 1
 40 695 l 1
 40 750 l 1
150 750 m 1
 245 750 l 1
 245 0 l 1
 150 0 l 1
 150 750 l 1
245 55 m 1
 355 55 l 1
 355 0 l 1
 245 0 l 1
 245 55 l 1
800 84 m 1
 785 29 741 -10 675 -10 c 0
 442.03125 -10 661.256835938 345 405 345 c 1
 425 381 l 1
 768.294921875 381 568.228515625 57 701 57 c 0
 722 57 755 66 770 101 c 1
 800 84 l 1
EndSplineSet
Substitution2: "'ss01' Style Set 1 lookup 2-1" uniFFFD
EndChar

StartChar: S
Encoding: 83 83 30
Width: 640
Flags: HMW
LayerCount: 2
Fore
SplineSet
147 103 m 17
 105 -5 l 9
 105 165 l 1
 147 103 l 17
105 255 m 1
 105 -5 l 1
 50 -5 l 1
 50 255 l 1
 105 255 l 1
95 160 m 1
 105 255 l 1
 105 156 186 36 330 36 c 0
 466 36 520 116 520 185 c 1
 610 210 l 1
 610 70 511 -15 340 -15 c 0
 204 -15 95 80 95 160 c 1
80 555 m 1
 170 585 l 1
 170 375 610 510 610 210 c 1
 520 185 l 1
 520 415 80 275 80 555 c 1
483 652 m 17
 525 750 l 9
 525 590 l 1
 483 652 l 17
525 505 m 1
 525 750 l 1
 580 750 l 1
 580 505 l 1
 525 505 l 1
535 595 m 1
 525 505 l 1
 525 624 444 709 330 709 c 0
 214 709 170 654 170 585 c 1
 80 555 l 1
 80 695 189 760 320 760 c 0
 436 760 535 685 535 595 c 1
EndSplineSet
EndChar

StartChar: T
Encoding: 84 84 31
Width: 715
Flags: HMW
LayerCount: 2
Fore
SplineSet
475 700 m 13
 645 700 l 5
 645 495 l 17
 645 652 612 700 475 700 c 13
645 700 m 5
 695 700 l 5
 695 495 l 1
 645 495 l 1
 645 700 l 5
240 700 m 21
 103 700 70 652 70 495 c 9
 70 700 l 5
 240 700 l 21
70 700 m 5
 70 495 l 1
 20 495 l 1
 20 700 l 5
 70 700 l 5
310 750 m 1
 310 700 l 5
 20 700 l 5
 20 750 l 1
 310 750 l 1
405 55 m 1
 535 55 l 1
 535 0 l 1
 405 0 l 1
 405 55 l 1
405 750 m 1
 695 750 l 1
 695 700 l 5
 405 700 l 5
 405 750 l 1
180 55 m 1
 310 55 l 1
 310 0 l 1
 180 0 l 1
 180 55 l 1
310 750 m 1
 405 750 l 1
 405 0 l 1
 310 0 l 1
 310 750 l 1
EndSplineSet
EndChar

StartChar: U
Encoding: 85 85 32
Width: 820
Flags: MW
LayerCount: 2
Fore
SplineSet
125 750 m 1
 220 750 l 1
 220 310 l 1
 125 300 l 1
 125 750 l 1
635 750 m 1
 695 750 l 1
 695 300 l 1
 635 300 l 1
 635 750 l 1
220 750 m 1
 340 750 l 1
 340 695 l 1
 220 695 l 1
 220 750 l 1
15 750 m 1
 125 750 l 1
 125 695 l 1
 15 695 l 1
 15 750 l 1
695 750 m 1
 805 750 l 1
 805 695 l 1
 695 695 l 1
 695 750 l 1
510 750 m 1
 635 750 l 1
 635 695 l 1
 510 695 l 1
 510 750 l 1
635 300 m 1
 695 300 l 1
 695 85 613 -15 415 -15 c 0
 202 -15 125 117 125 300 c 1
 220 310 l 1
 220 158 266 45 430 45 c 4
 584 45 635 118 635 300 c 1
EndSplineSet
EndChar

StartChar: V
Encoding: 86 86 33
Width: 860
Flags: HMW
LayerCount: 2
Fore
SplineSet
330 695 m 1
 0 695 l 1
 0 750 l 1
 330 750 l 1
 330 695 l 1
860 695 m 1
 580 695 l 1
 580 750 l 1
 860 750 l 1
 860 695 l 1
480 55 m 1
 410 -15 l 1
 90 750 l 1
 200 750 l 1
 480 55 l 1
465 -15 m 1
 410 -15 l 1
 725 750 l 1
 780 750 l 1
 465 -15 l 1
EndSplineSet
EndChar

StartChar: W
Encoding: 87 87 34
Width: 1190
Flags: MW
LayerCount: 2
Fore
SplineSet
1185 695 m 5
 905 695 l 5
 905 750 l 5
 1185 750 l 5
 1185 695 l 5
851 55 m 1
 781 -10 l 1
 545 750 l 5
 645 750 l 5
 851 55 l 1
840 -10 m 1
 781 -10 l 1
 1035 750 l 5
 1093 750 l 5
 840 -10 l 1
335 695 m 5
 5 695 l 5
 5 750 l 5
 335 750 l 5
 335 695 l 5
755 695 m 5
 475 695 l 5
 475 750 l 5
 755 750 l 5
 755 695 l 5
430 55 m 1
 360 -10 l 1
 95 750 l 5
 195 750 l 5
 430 55 l 1
420 -10 m 1
 360 -10 l 1
 603 652 l 5
 661 652 l 5
 420 -10 l 1
EndSplineSet
EndChar

StartChar: X
Encoding: 88 88 35
Width: 870
Flags: HMW
LayerCount: 2
Fore
SplineSet
465 377 m 1
 397 377 l 1
 686 748 l 1
 751 748 l 1
 465 377 l 1
154 0 m 1
 86 0 l 1
 417 417 l 1
 482 417 l 1
 154 0 l 1
530 55 m 1
 860 55 l 1
 860 0 l 1
 530 0 l 1
 530 55 l 1
10 55 m 1
 310 55 l 1
 310 0 l 1
 10 0 l 1
 10 55 l 1
375 695 m 1
 45 695 l 1
 45 750 l 1
 375 750 l 1
 375 695 l 1
825 695 m 1
 525 695 l 1
 525 750 l 1
 825 750 l 1
 825 695 l 1
796 0 m 1
 676 0 l 1
 105 750 l 1
 221 750 l 5
 796 0 l 1
EndSplineSet
EndChar

StartChar: Y
Encoding: 89 89 36
Width: 785
Flags: MW
LayerCount: 2
Fore
SplineSet
245 55 m 5
 355 55 l 5
 355 0 l 5
 245 0 l 5
 245 55 l 5
450 55 m 5
 570 55 l 5
 570 0 l 5
 450 0 l 5
 450 55 l 5
355 350 m 5
 450 350 l 5
 450 0 l 5
 355 0 l 5
 355 350 l 5
440 317 m 5
 371 317 l 5
 651 748 l 5
 721 748 l 5
 440 317 l 5
330 695 m 5
 0 695 l 5
 0 750 l 5
 330 750 l 5
 330 695 l 5
785 695 m 5
 485 695 l 5
 485 750 l 5
 785 750 l 5
 785 695 l 5
449 334 m 5
 361 300 l 5
 60 750 l 5
 170 750 l 5
 449 334 l 5
EndSplineSet
EndChar

StartChar: Z
Encoding: 90 90 37
Width: 735
Flags: HMW
LayerCount: 2
Fore
SplineSet
295 695 m 17
 158 695 125 652 125 515 c 9
 125 695 l 1
 295 695 l 17
475 55 m 17
 612 55 645 98 645 255 c 9
 645 55 l 1
 475 55 l 17
540 695 m 5
 655 695 l 1
 150 55 l 1
 35 55 l 1
 540 695 l 5
645 55 m 1
 645 255 l 1
 695 255 l 1
 695 55 l 1
 645 55 l 1
125 515 m 1
 75 515 l 1
 75 695 l 1
 125 695 l 1
 125 515 l 1
35 55 m 1
 695 55 l 1
 695 0 l 1
 35 0 l 1
 35 55 l 1
655 750 m 1
 655 695 l 1
 75 695 l 1
 75 750 l 1
 655 750 l 1
EndSplineSet
EndChar

StartChar: a
Encoding: 97 97 38
Width: 556
VWidth: 1155
Flags: HMW
LayerCount: 2
Fore
SplineSet
289 299 m 1
 289 261 l 1
 173 261 132 215 132 138 c 0
 132 71 180 46 230 46 c 0
 298 46 351 100 351 191 c 1
 375 179 l 1
 375 55 296 -10 185 -10 c 0
 96 -10 30 39 30 123 c 0
 30 217 117 299 289 299 c 1
441 367 m 1
 441 71 l 1
 351 73 l 1
 351 377 l 1
 441 367 l 1
60 403 m 1
 60 480 152 530 253 530 c 0
 403 530 441 448 441 367 c 1
 351 367 l 1
 351 434 328 484 238 484 c 0
 184 484 146 465 146 445 c 1
 60 403 l 1
289 299 m 1
 403 299 l 1
 403 261 l 1
 289 261 l 1
 289 299 l 1
551 63 m 1
 528 13 486 -10 443 -10 c 0
 396 -10 351 14 351 73 c 1
 441 71 l 1
 441 51 453 42 467 42 c 0
 482 42 500 48 519 82 c 1
 551 63 l 1
174 393 m 0
 174 359 153 340 119 340 c 0
 88 340 60 359 60 403 c 1
 146 445 l 1
 146 427 174 432 174 393 c 0
EndSplineSet
EndChar

StartChar: b
Encoding: 98 98 39
Width: 628
VWidth: 1155
Flags: MW
LayerCount: 2
Fore
SplineSet
195 260 m 0
 195 146 252 42 343 42 c 4
 427 42 483 146 483 260 c 0
 483 374 427 478 343 478 c 4
 252 478 195 374 195 260 c 0
166 260 m 0
 166 422 240 529 361 529 c 0
 480 529 583 430 583 260 c 0
 583 90 480 -10 361 -10 c 0
 240 -10 166 98 166 260 c 0
15 55 m 1
 105 55 l 1
 105 0 l 1
 15 0 l 1
 15 55 l 1
15 780 m 1
 105 780 l 1
 105 725 l 1
 15 725 l 1
 15 780 l 1
105 780 m 1
 195 780 l 1
 195 0 l 1
 105 0 l 1
 105 780 l 1
EndSplineSet
EndChar

StartChar: c
Encoding: 99 99 40
Width: 548
VWidth: 1155
Flags: HMW
LayerCount: 2
Fore
SplineSet
45 250 m 1
 146 270 l 1
 146 146 185 39 294 39 c 0
 377 39 429 93 454 173 c 1
 508 173 l 1
 477 66 413 -10 292 -10 c 0
 121 -10 45 110 45 250 c 1
490 381 m 1
 401 437 l 1
 401 464 358 483 304 483 c 0
 195 483 146 374 146 270 c 1
 45 250 l 1
 45 410 133 530 294 530 c 0
 416 530 490 463 490 381 c 1
401 437 m 1
 490 381 l 1
 490 333 455 315 426 315 c 0
 399 315 369 336 369 373 c 0
 369 409 401 414 401 437 c 1
EndSplineSet
EndChar

StartChar: d
Encoding: 100 100 41
Width: 628
VWidth: 1155
Flags: HMW
LayerCount: 2
Fore
SplineSet
433 260 m 0
 433 374 376 478 285 478 c 0
 201 478 145 374 145 260 c 0
 145 146 201 42 285 42 c 0
 376 42 433 146 433 260 c 0
462 260 m 0
 462 98 388 -10 267 -10 c 0
 148 -10 45 90 45 260 c 0
 45 430 148 529 267 529 c 0
 388 529 462 422 462 260 c 0
613 55 m 1
 613 0 l 1
 523 0 l 1
 523 55 l 1
 613 55 l 1
433 780 m 1
 433 725 l 1
 343 725 l 5
 343 780 l 1
 433 780 l 1
523 780 m 1
 523 0 l 1
 433 0 l 1
 433 780 l 1
 523 780 l 1
EndSplineSet
EndChar

StartChar: e
Encoding: 101 101 42
Width: 548
VWidth: 1155
Flags: HMW
LayerCount: 2
Fore
SplineSet
45 250 m 1
 146 270 l 1
 146 146 181 39 290 39 c 0
 373 39 427 93 452 173 c 1
 503 173 l 1
 477 66 409 -10 278 -10 c 0
 127 -10 45 110 45 250 c 1
122 304 m 1
 446 304 l 1
 446 261 l 1
 122 261 l 1
 122 304 l 1
491 261 m 1
 446 261 l 1
 446 290 l 1
 491 290 l 1
 491 261 l 1
502 261 m 1
 405 261 l 5
 405 364 384 486 285 486 c 0
 176 486 146 374 146 270 c 1
 45 250 l 1
 45 410 124 530 285 530 c 0
 454 530 502 400 502 261 c 1
EndSplineSet
EndChar

StartChar: f
Encoding: 102 102 43
Width: 400
VWidth: 1155
Flags: HMW
LayerCount: 2
Fore
SplineSet
485 679 m 1
 389 718 l 1
 389 730 371 745 319 745 c 0
 239 745 210 677 210 550 c 1
 120 572 l 1
 120 703 187 790 317 790 c 0
 418 790 485 736 485 679 c 1
368 661 m 0
 368 691 389 698 389 718 c 1
 485 679 l 1
 485 636 461 613 426 613 c 0
 391 613 368 633 368 661 c 0
30 55 m 1
 120 55 l 1
 120 0 l 1
 30 0 l 1
 30 55 l 1
210 55 m 1
 330 55 l 1
 330 0 l 1
 210 0 l 1
 210 55 l 1
30 520 m 1
 350 520 l 1
 350 465 l 1
 30 465 l 1
 30 520 l 1
120 572 m 1
 210 550 l 1
 210 0 l 1
 120 0 l 1
 120 572 l 1
EndSplineSet
EndChar

StartChar: g
Encoding: 103 103 44
Width: 597
VWidth: 1155
Flags: HMW
LayerCount: 2
Fore
SplineSet
210 22 m 1
 122 -4 120 -70 120 -102 c 0
 120 -170 170 -213 276 -213 c 0
 360 -213 449 -179 449 -107 c 1
 520 -82 l 1
 520 -193 420 -260 260 -260 c 0
 117 -260 25 -220 25 -135 c 0
 25 -44 115 12 160 12 c 1
 210 22 l 1
57 84 m 1
 125 106 l 1
 125 69 167 69 222 69 c 0
 247 69 305 70 333 70 c 0
 428 70 520 54 520 -82 c 1
 449 -107 l 1
 449 -53 415 -9 350 -9 c 0
 329 -9 258 -9 236 -9 c 0
 146 -9 57 -8 57 84 c 1
250 178 m 1
 207 178 125 140 125 106 c 1
 57 84 l 1
 57 148 137 197 252 197 c 1
 250 178 l 1
597 439 m 1
 515 478 l 1
 515 488 508 493 496 493 c 0
 459 493 417 467 397 380 c 1
 363 402 l 1
 383 493 453 530 493 530 c 0
 564 530 597 491 597 439 c 1
496 428 m 0
 496 460 515 462 515 478 c 1
 597 439 l 1
 597 405 574 384 544 384 c 0
 516 384 496 403 496 428 c 0
50 345 m 4
 50 455 128 530 249 530 c 4
 370 530 448 455 448 345 c 4
 448 235 370 160 249 160 c 4
 128 160 50 235 50 345 c 4
145 345 m 0
 145 271 170 200 249 200 c 0
 328 200 353 271 353 345 c 0
 353 419 328 490 249 490 c 0
 170 490 145 419 145 345 c 0
EndSplineSet
EndChar

StartChar: h
Encoding: 104 104 45
Width: 660
VWidth: 1155
Flags: MW
LayerCount: 2
Fore
SplineSet
450 358 m 1
 540 369 l 1
 540 0 l 1
 450 0 l 1
 450 358 l 1
450 358 m 1
 450 432 421 473 355 473 c 4
 257 473 195 386 195 283 c 1
 166 283 l 1
 166 385 215 530 378 530 c 0
 505 530 540 476 540 369 c 1
 450 358 l 1
540 55 m 1
 630 55 l 1
 630 0 l 1
 540 0 l 1
 540 55 l 1
361 55 m 1
 451 55 l 1
 451 0 l 1
 361 0 l 1
 361 55 l 1
195 55 m 1
 285 55 l 1
 285 0 l 1
 195 0 l 1
 195 55 l 1
105 780 m 1
 195 780 l 1
 195 0 l 1
 105 0 l 1
 105 780 l 1
15 780 m 1
 105 780 l 1
 105 725 l 1
 15 725 l 1
 15 780 l 1
15 55 m 1
 105 55 l 1
 105 0 l 1
 15 0 l 1
 15 55 l 1
EndSplineSet
EndChar

StartChar: i
Encoding: 105 105 46
Width: 310
VWidth: 1155
Flags: HMW
LayerCount: 2
Fore
SplineSet
95 700 m 4
 95 733 122 760 155 760 c 4
 188 760 215 733 215 700 c 4
 215 667 188 640 155 640 c 4
 122 640 95 667 95 700 c 4
25 55 m 1
 115 55 l 1
 115 0 l 1
 25 0 l 1
 25 55 l 1
205 55 m 1
 295 55 l 1
 295 0 l 1
 205 0 l 1
 205 55 l 1
25 520 m 1
 115 520 l 1
 115 465 l 1
 25 465 l 1
 25 520 l 1
115 520 m 1
 205 520 l 1
 205 0 l 1
 115 0 l 1
 115 520 l 1
EndSplineSet
EndChar

StartChar: j
Encoding: 106 106 47
Width: 262
VWidth: 1155
Flags: HMW
LayerCount: 2
Fore
SplineSet
92 700 m 0
 92 733 119 760 152 760 c 0
 185 760 212 733 212 700 c 0
 212 667 185 640 152 640 c 0
 119 640 92 667 92 700 c 0
19 -125 m 0
 19 -160 0 -159 0 -179 c 1
 -98 -140 l 1
 -98 -102 -74 -69 -39 -69 c 0
 -5 -69 19 -92 19 -125 c 0
-98 -140 m 1
 0 -179 l 1
 0 -192 6 -216 43 -216 c 0
 154 -216 115 -10 115 104 c 1
 205 11 l 1
 205 -139 184 -260 43 -260 c 0
 -46 -260 -98 -202 -98 -140 c 1
25 520 m 5
 115 520 l 1
 115 465 l 1
 25 465 l 5
 25 520 l 5
115 520 m 1
 205 520 l 1
 205 11 l 1
 115 104 l 1
 115 520 l 1
EndSplineSet
EndChar

StartChar: k
Encoding: 107 107 48
Width: 596
VWidth: 1155
Flags: MW
LayerCount: 2
Fore
SplineSet
354 55 m 1
 591 55 l 1
 591 0 l 1
 354 0 l 1
 354 55 l 1
577 465 m 1
 304 465 l 1
 304 520 l 1
 577 520 l 1
 577 465 l 1
583 0 m 1
 470 0 l 1
 187 291 l 1
 272 326 l 1
 583 0 l 1
260 280 m 1
 187 291 l 1
 479 520 l 5
 554 520 l 1
 260 280 l 1
15 55 m 1
 105 55 l 1
 105 0 l 1
 15 0 l 1
 15 55 l 1
195 55 m 1
 275 55 l 1
 275 0 l 1
 195 0 l 1
 195 55 l 1
15 780 m 1
 105 780 l 1
 105 725 l 1
 15 725 l 1
 15 780 l 1
105 780 m 1
 195 780 l 1
 195 0 l 1
 105 0 l 1
 105 780 l 1
EndSplineSet
EndChar

StartChar: l
Encoding: 108 108 49
Width: 300
VWidth: 1155
Flags: MW
LayerCount: 2
Fore
SplineSet
15 55 m 5
 105 55 l 5
 105 0 l 5
 15 0 l 5
 15 55 l 5
195 55 m 5
 285 55 l 5
 285 0 l 5
 195 0 l 5
 195 55 l 5
15 780 m 5
 105 780 l 5
 105 725 l 5
 15 725 l 5
 15 780 l 5
105 780 m 5
 195 780 l 5
 195 0 l 5
 105 0 l 5
 105 780 l 5
EndSplineSet
EndChar

StartChar: m
Encoding: 109 109 50
Width: 923
VWidth: 1155
Flags: MW
LayerCount: 2
Fore
SplineSet
812 55 m 1
 893 55 l 1
 893 0 l 1
 812 0 l 1
 812 55 l 1
629 55 m 1
 722 55 l 1
 722 0 l 1
 629 0 l 1
 629 55 l 1
722 358 m 1
 812 369 l 1
 812 0 l 1
 722 0 l 1
 722 358 l 1
336 55 m 1
 416 55 l 1
 416 0 l 1
 336 0 l 1
 336 55 l 1
722 358 m 1
 722 432 703 473 647 473 c 4
 539 473 506 386 506 283 c 1
 467 283 l 1
 467 395 527 530 670 530 c 0
 777 530 812 476 812 369 c 1
 722 358 l 1
506 55 m 1
 587 55 l 1
 587 0 l 1
 506 0 l 1
 506 55 l 1
416 358 m 1
 506 369 l 1
 506 0 l 1
 416 0 l 1
 416 358 l 1
200 55 m 1
 293 55 l 1
 293 0 l 1
 200 0 l 1
 200 55 l 1
110 520 m 1
 200 520 l 1
 200 0 l 1
 110 0 l 1
 110 520 l 1
30 520 m 1
 110 520 l 1
 110 465 l 1
 30 465 l 1
 30 520 l 1
30 55 m 1
 110 55 l 1
 110 0 l 1
 30 0 l 1
 30 55 l 1
416 358 m 1
 416 432 397 473 341 473 c 4
 243 473 200 386 200 283 c 1
 171 283 l 1
 171 395 221 530 364 530 c 0
 471 530 506 476 506 369 c 1
 416 358 l 1
EndSplineSet
EndChar

StartChar: n
Encoding: 110 110 51
Width: 675
VWidth: 1155
Flags: HMW
LayerCount: 2
Fore
SplineSet
555 55 m 1
 645 55 l 1
 645 0 l 1
 555 0 l 1
 555 55 l 1
375 55 m 1
 465 55 l 1
 465 0 l 1
 375 0 l 1
 375 55 l 1
465 358 m 1
 555 369 l 1
 555 0 l 1
 465 0 l 1
 465 358 l 1
210 55 m 1
 300 55 l 1
 300 0 l 1
 210 0 l 1
 210 55 l 1
120 520 m 1
 210 520 l 1
 210 0 l 1
 120 0 l 1
 120 520 l 1
30 520 m 1
 120 520 l 1
 120 465 l 1
 30 465 l 1
 30 520 l 1
30 55 m 1
 120 55 l 1
 120 0 l 1
 30 0 l 1
 30 55 l 1
465 358 m 1
 465 432 436 473 370 473 c 0
 272 473 210 386 210 283 c 1
 181 283 l 5
 181 385 230 530 393 530 c 0
 520 530 555 476 555 369 c 1
 465 358 l 1
EndSplineSet
EndChar

StartChar: o
Encoding: 111 111 52
Width: 568
VWidth: 1155
Flags: HMW
LayerCount: 2
Fore
SplineSet
150 270 m 0
 150 146 175 35 284 35 c 0
 393 35 418 146 418 250 c 4
 418 374 393 485 284 485 c 0
 175 485 150 374 150 270 c 0
45 250 m 0
 45 410 123 530 284 530 c 0
 445 530 523 410 523 270 c 0
 523 110 445 -10 284 -10 c 0
 123 -10 45 110 45 250 c 0
EndSplineSet
EndChar

StartChar: p
Encoding: 112 112 53
Width: 628
VWidth: 1155
Flags: MW
LayerCount: 2
Fore
SplineSet
15 -250 m 1
 15 -195 l 5
 105 -195 l 5
 105 -250 l 1
 15 -250 l 1
195 260 m 0
 195 146 252 42 343 42 c 0
 427 42 483 146 483 260 c 0
 483 374 427 478 343 478 c 0
 252 478 195 374 195 260 c 0
166 260 m 0
 166 422 240 530 361 530 c 0
 480 530 583 430 583 260 c 0
 583 90 480 -9 361 -9 c 0
 240 -9 166 98 166 260 c 0
15 465 m 1
 15 520 l 1
 105 520 l 1
 105 465 l 1
 15 465 l 1
195 -250 m 1
 195 -195 l 5
 285 -195 l 5
 285 -250 l 1
 195 -250 l 1
105 -250 m 1
 105 520 l 1
 195 520 l 1
 195 -250 l 1
 105 -250 l 1
EndSplineSet
EndChar

StartChar: q
Encoding: 113 113 54
Width: 628
VWidth: 1155
Flags: MW
LayerCount: 2
Fore
SplineSet
433 -250 m 1
 343 -250 l 1
 343 -195 l 5
 433 -195 l 5
 433 -250 l 1
433 260 m 0
 433 374 376 478 285 478 c 0
 201 478 145 374 145 260 c 0
 145 146 201 42 285 42 c 0
 376 42 433 146 433 260 c 0
462 260 m 0
 462 98 388 -9 267 -9 c 0
 148 -9 45 90 45 260 c 0
 45 430 148 530 267 530 c 0
 388 530 462 422 462 260 c 0
613 465 m 1
 523 465 l 1
 523 520 l 1
 613 520 l 1
 613 465 l 1
613 -250 m 1
 523 -250 l 1
 523 -195 l 5
 613 -195 l 5
 613 -250 l 1
523 -250 m 1
 433 -250 l 1
 433 520 l 1
 523 520 l 1
 523 -250 l 1
EndSplineSet
EndChar

StartChar: r
Encoding: 114 114 55
Width: 453
VWidth: 1155
Flags: HMW
LayerCount: 2
Fore
SplineSet
353 466 m 1
 353 476 347 481 323 481 c 0
 255 481 205 386 205 283 c 1
 181 283 l 1
 181 375 204 530 345 530 c 0
 401 530 453 494 453 436 c 1
 353 466 l 1
25 55 m 1
 115 55 l 1
 115 0 l 1
 25 0 l 1
 25 55 l 1
25 520 m 1
 115 520 l 1
 115 465 l 1
 25 465 l 1
 25 520 l 1
115 520 m 1
 205 520 l 1
 205 0 l 1
 115 0 l 1
 115 520 l 1
205 55 m 1
 295 55 l 1
 295 0 l 1
 205 0 l 1
 205 55 l 1
330 411 m 0
 330 447 353 454 353 466 c 1
 453 436 l 1
 453 394 426 360 391 360 c 0
 357 360 330 380 330 411 c 0
EndSplineSet
EndChar

StartChar: s
Encoding: 115 115 56
Width: 470
VWidth: 1155
Flags: HMW
LayerCount: 2
Fore
SplineSet
47 380 m 1
 125 406 l 1
 125 266 440 350 440 152 c 5
 357 133 l 1
 357 270 47 184 47 380 c 1
105 67 m 17
 80 -10 l 9
 80 112 l 1
 105 67 l 17
85 173 m 1
 80 -10 l 1
 30 -10 l 1
 30 173 l 1
 85 173 l 1
80 97 m 1
 85 173 l 1
 85 90 171 40 233 40 c 0
 313 40 357 82 357 133 c 1
 440 152 l 1
 440 48 360 -12 253 -12 c 0
 144 -12 80 69 80 97 c 1
347 453 m 17
 372 530 l 9
 372 408 l 1
 347 453 l 17
367 350 m 1
 372 530 l 1
 422 530 l 1
 422 350 l 1
 367 350 l 1
369 423 m 1
 367 350 l 1
 367 433 285 481 233 481 c 0
 170 481 125 453 125 406 c 1
 47 380 l 1
 47 484 127 532 212 532 c 0
 320 532 369 449 369 423 c 1
EndSplineSet
EndChar

StartChar: t
Encoding: 116 116 57
Width: 385
VWidth: 1155
Flags: HMW
LayerCount: 2
Fore
SplineSet
10 520 m 21
 96 520 138 523 138 700 c 13
 138 520 l 5
 10 520 l 21
138 520 m 5
 138 700 l 5
 193 700 l 5
 193 520 l 5
 138 520 l 5
10 520 m 5
 340 520 l 5
 340 465 l 5
 10 465 l 5
 10 520 l 5
350 107 m 5
 331 43 285 -12 204 -12 c 4
 132 -12 103 31 103 86 c 5
 193 107 l 5
 193 67 210 50 237 50 c 4
 268 50 294 77 312 121 c 5
 350 107 l 5
193 498 m 5
 193 107 l 5
 103 86 l 5
 103 498 l 5
 193 498 l 5
EndSplineSet
EndChar

StartChar: u
Encoding: 117 117 58
Width: 675
VWidth: 1155
Flags: MW
LayerCount: 2
Fore
SplineSet
120 465 m 5
 30 465 l 5
 30 520 l 5
 120 520 l 5
 120 465 l 5
465 465 m 5
 375 465 l 5
 375 520 l 5
 465 520 l 5
 465 465 l 5
645 0 m 5
 555 0 l 5
 555 55 l 5
 645 55 l 5
 645 0 l 5
210 162 m 5
 210 88 239 37 305 37 c 4
 403 37 465 134 465 237 c 5
 494 237 l 5
 494 135 445 -10 282 -10 c 4
 155 -10 120 44 120 151 c 5
 210 162 l 5
210 162 m 5
 120 151 l 5
 120 520 l 5
 210 520 l 5
 210 162 l 5
555 0 m 5
 465 0 l 5
 465 520 l 5
 555 520 l 5
 555 0 l 5
EndSplineSet
EndChar

StartChar: v
Encoding: 118 118 59
Width: 589
VWidth: 1155
Flags: MW
LayerCount: 2
Fore
SplineSet
276 465 m 1
 5 465 l 1
 5 520 l 1
 276 520 l 1
 276 465 l 1
584 465 m 1
 360 465 l 1
 360 520 l 1
 584 520 l 1
 584 465 l 1
338 35 m 5
 273 -10 l 5
 70 520 l 1
 170 520 l 1
 338 35 l 5
327 -10 m 5
 273 -10 l 5
 468 520 l 1
 525 520 l 1
 327 -10 l 5
EndSplineSet
EndChar

StartChar: w
Encoding: 119 119 60
Width: 865
VWidth: 1155
Flags: HMW
LayerCount: 2
Fore
SplineSet
559 -10 m 5
 559 35 l 5
 626 35 l 5
 626 -10 l 5
 559 -10 l 5
243 -10 m 1
 243 35 l 1
 310 35 l 1
 310 -10 l 1
 243 -10 l 1
860 465 m 1
 606 465 l 1
 606 520 l 1
 860 520 l 1
 860 465 l 1
626 35 m 5
 559 -10 l 5
 409 473 l 1
 475 520 l 1
 626 35 l 5
628 -10 m 5
 569 -10 l 5
 719 520 l 1
 781 520 l 1
 628 -10 l 5
296 465 m 1
 5 465 l 1
 5 520 l 1
 296 520 l 1
 296 465 l 1
310 35 m 1
 243 -10 l 1
 70 520 l 1
 164 520 l 1
 310 35 l 1
312 -10 m 1
 253 -10 l 1
 413 520 l 1
 475 520 l 1
 312 -10 l 1
EndSplineSet
EndChar

StartChar: x
Encoding: 120 120 61
Width: 564
VWidth: 1155
Flags: HMW
LayerCount: 2
Fore
SplineSet
328 55 m 1
 559 55 l 1
 559 0 l 1
 328 0 l 1
 328 55 l 1
5 55 m 1
 204 55 l 1
 204 0 l 1
 5 0 l 1
 5 55 l 1
251 465 m 1
 5 465 l 1
 5 520 l 1
 251 520 l 1
 251 465 l 1
559 465 m 1
 365 465 l 1
 365 520 l 1
 559 520 l 1
 559 465 l 1
544 0 m 1
 434 0 l 1
 50 520 l 1
 160 520 l 1
 544 0 l 1
80 0 m 1
 5 0 l 1
 474 520 l 5
 549 520 l 5
 80 0 l 1
EndSplineSet
EndChar

StartChar: y
Encoding: 121 121 62
Width: 628
VWidth: 1155
Flags: HMW
LayerCount: 2
Fore
SplineSet
124 -107 m 0
 124 -145 82 -140 82 -166 c 1
 13 -131 l 1
 13 -85 43 -58 74 -58 c 0
 104 -58 124 -76 124 -107 c 0
366 58 m 1
 325 -67 l 1
 59 520 l 1
 159 520 l 1
 366 58 l 1
623 465 m 1
 408 465 l 1
 408 520 l 1
 623 520 l 1
 623 465 l 1
276 465 m 1
 5 465 l 1
 5 520 l 1
 276 520 l 1
 276 465 l 1
136 -210 m 5
 175 -210 230.925806431 -180.277675198 278 -60 c 2
 505 520 l 1
 569 520 l 1
 322 -102 l 2
 270.118159918 -232.649815916 194 -260 136 -260 c 5
 136 -210 l 5
13 -131 m 1
 82 -166 l 1
 82 -189 103 -210 136 -210 c 5
 136 -260 l 5
 59 -260 13 -198 13 -131 c 1
EndSplineSet
EndChar

StartChar: z
Encoding: 122 122 63
Width: 550
VWidth: 1155
Flags: HMW
LayerCount: 2
Fore
SplineSet
385 470 m 1
 494 470 l 1
 148 50 l 1
 40 50 l 1
 385 470 l 1
304 50 m 17
 451 50 455 90 455 214 c 9
 455 50 l 1
 304 50 l 17
455 50 m 1
 455 214 l 1
 505 214 l 1
 505 50 l 1
 455 50 l 1
113 318 m 5
 63 318 l 5
 63 470 l 5
 113 470 l 5
 113 318 l 5
40 50 m 1
 505 50 l 1
 505 0 l 1
 40 0 l 1
 40 50 l 1
494 520 m 5
 494 470 l 5
 63 470 l 5
 63 520 l 5
 494 520 l 5
113 318 m 13
 113 470 l 5
 241 470 l 21
 117 470 113 419 113 318 c 13
EndSplineSet
EndChar

StartChar: comma
Encoding: 44 44 65
Width: 215
Flags: HMW
LayerCount: 2
Fore
SplineSet
177 4 m 1
 177 -66 128 -156 38 -156 c 1
 38 -116 l 1
 93 -116 143 -59 127 11 c 1
 143.365234375 16.9150390625 148.764648438 58.1123046875 177 4 c 1
40 49 m 0
 40 82 69 108 107 108 c 0
 146 108 177 77 177 4 c 0
 177 -10.7080078125 150.043945312 28.44140625 142 19.107421875 c 0
 118.506835938 -8.15625 111.291992188 -10 93 -10 c 0
 60 -10 40 16 40 49 c 0
EndSplineSet
EndChar

StartChar: exclam
Encoding: 33 33 67
Width: 319
Flags: HMW
LayerCount: 2
Fore
SplineSet
218 659 m 4
 207 483 178 358 178 208 c 5
 140 208 l 5
 140 358 111 483 100 659 c 4
 100 666 100 672 100 678 c 4
 100 724 112 758 159 758 c 4
 206 758 219 724 219 678 c 4
 219 672 218 666 218 659 c 4
100 49 m 4
 100 82 126 108 159 108 c 4
 192 108 218 82 218 49 c 4
 218 16 192 -10 159 -10 c 4
 126 -10 100 16 100 49 c 4
EndSplineSet
EndChar

StartChar: quotesingle
Encoding: 39 39 70
Width: 199
Flags: HMW
LayerCount: 2
Fore
SplineSet
148 679 m 24
 137 604 118 548 118 488 c 1
 80 488 l 1
 80 548 61 604 50 679 c 24
 49 686 49 691 49 697 c 0
 49 736 70 758 99 758 c 0
 128 758 149 736 149 697 c 0
 149 691 149 686 148 679 c 24
EndSplineSet
EndChar

StartChar: question
Encoding: 63 63 75
Width: 550
Flags: HMW
LayerCount: 2
Fore
SplineSet
217 349.01171875 m 1
 277 349.01171875 l 1
 277 209.01171875 l 1
 217 209.01171875 l 1
 217 349.01171875 l 1
45 591 m 1
 45 673 119 760 261 760 c 0
 422 760 500 680 500 550 c 1
 399 570 l 1
 399 644 360 718 261 718 c 0
 177 718 149 684 149 662 c 1
 45 591 l 1
149 662 m 1
 149 632 180 631 180 580 c 0
 180 538 147 520 112 520 c 0
 77 520 45 543 45 591 c 1
 149 662 l 1
217 349.01171875 m 1
 324.477539062 380.314453125 399 466.76171875 399 570 c 1
 500 550 l 1
 500 430 388 310 217 310 c 1
 217 349.01171875 l 1
EndSplineSet
Refer: 1 46 S 1 0 0 1 149 0 2
EndChar

StartChar: parenleft
Encoding: 40 40 76
Width: 445
Flags: HMW
LayerCount: 2
Fore
SplineSet
415 -120 m 1
 405 -170 l 1
 182 -120 55 62 55 325 c 0
 55 588 182 750 405 800 c 1
 415 750 l 1
 241 700 170 557 170 325 c 0
 170 93 241 -70 415 -120 c 1
EndSplineSet
EndChar

StartChar: at
Encoding: 64 64 79
Width: 1060
VWidth: 1155
Flags: HMW
LayerCount: 2
Fore
SplineSet
835 -64 m 1
 751 -162 632 -214 469 -214 c 0
 326 -214 65 -112 65 221 c 1
 170 231 l 1
 170 -71 351 -159 495 -159 c 0
 599 -159 706 -123 796 -25 c 1
 835 -64 l 1
802 520 m 1
 730 210 l 1
 640 210 l 1
 712 520 l 1
 802 520 l 1
693 359 m 0
 693 192.828125 584 70 484 70 c 0
 405 70 334 125.583984375 334 230 c 0
 334 380 449 529 568 529 c 0
 649 529 693 461 693 359 c 0
664 346 m 0
 664 387.927734375 650 478 584 478 c 0
 510 478 435 364 435 240 c 0
 435 173.072265625 450 122 514 122 c 0
 575 122 664 218 664 346 c 0
640 210 m 1
 730 210 l 1
 728 197 716 132 763 132 c 0
 864 132 942 271 942 425 c 1
 1005 421 l 1
 1005 261 912 70 741 70 c 0
 652 70 627 148 640 210 c 1
942 425 m 1
 942 602 786 737 602 737 c 0
 358 737 170 503 170 231 c 1
 65 221 l 1
 65 554 312 790 585 790 c 0
 858 790 1005 604 1005 421 c 1
 942 425 l 1
EndSplineSet
EndChar

StartChar: dollar
Encoding: 36 36 80
Width: 660
Flags: HMW
LayerCount: 2
Fore
SplineSet
330 835 m 1
 385 835 l 1
 325 -85 l 1
 270 -85 l 1
 330 835 l 1
135 130 m 1
 46 186 l 1
 46 234 81 252 110 252 c 0
 137 252 167 231 167 194 c 0
 167 158 135 153 135 130 c 1
485 635 m 5
 574 579 l 5
 574 531 539 513 510 513 c 4
 483 513 453 534 453 571 c 4
 453 607 485 612 485 635 c 5
46 186 m 1
 135 130 l 1
 135 101 186 41 330 41 c 0
 466 41 520 121 520 190 c 1
 610 215 l 1
 610 75 511 -10 330 -10 c 0
 144 -10 46 76 46 186 c 1
80 555 m 1
 170 585 l 1
 170 375 610 535 610 215 c 1
 520 190 l 1
 520 420 80 265 80 555 c 1
574 579 m 1
 485 635 l 1
 485 664 444 709 330 709 c 0
 224 709 170 654 170 585 c 1
 80 555 l 1
 80 695 199 760 320 760 c 0
 446 760 574 719 574 579 c 1
EndSplineSet
EndChar

StartChar: numbersign
Encoding: 35 35 81
Width: 660
Flags: HMW
LayerCount: 2
Fore
SplineSet
-10 280 m 1
 640 280 l 1
 640 225 l 1
 -10 225 l 1
 -10 280 l 1
20 540 m 1
 670 540 l 1
 670 485 l 1
 20 485 l 1
 20 540 l 1
460 805 m 1
 515 805 l 1
 415 -55 l 1
 360 -55 l 1
 460 805 l 1
230 805 m 5
 285 805 l 5
 185 -55 l 5
 130 -55 l 5
 230 805 l 5
EndSplineSet
EndChar

StartChar: slash
Encoding: 47 47 82
Width: 520
Flags: HMW
LayerCount: 2
Fore
SplineSet
416 780 m 5
 480 780 l 5
 109 -150 l 5
 40 -150 l 5
 416 780 l 5
EndSplineSet
EndChar

StartChar: percent
Encoding: 37 37 83
Width: 1000
Flags: HMW
LayerCount: 2
Fore
SplineSet
675 210 m 4
 675 108 691 40 765 40 c 4
 839 40 855 108 855 210 c 4
 855 312 839 380 765 380 c 4
 691 380 675 312 675 210 c 4
565 210 m 4
 565 353 652 430 765 430 c 4
 878 430 965 353 965 210 c 4
 965 67 858 -10 765 -10 c 4
 652 -10 565 67 565 210 c 4
701 750 m 5
 765 750 l 5
 304 0 l 5
 235 0 l 5
 701 750 l 5
145 540 m 4
 145 438 161 370 235 370 c 4
 309 370 325 438 325 540 c 4
 325 642 309 710 235 710 c 4
 161 710 145 642 145 540 c 4
35 540 m 4
 35 683 122 760 235 760 c 4
 348 760 435 683 435 540 c 4
 435 397 328 320 235 320 c 4
 122 320 35 397 35 540 c 4
EndSplineSet
EndChar

StartChar: hyphen
Encoding: 45 45 85
Width: 460
Flags: HMW
LayerCount: 2
Fore
SplineSet
60 415 m 1
 400 415 l 1
 400 360 l 5
 60 360 l 5
 60 415 l 1
EndSplineSet
EndChar

StartChar: plus
Encoding: 43 43 87
Width: 530
Flags: HMW
LayerCount: 2
Fore
SplineSet
238 110 m 5
 238 520 l 5
 292 520 l 5
 292 110 l 5
 238 110 l 5
60 343 m 5
 470 343 l 5
 470 288 l 5
 60 288 l 5
 60 343 l 5
EndSplineSet
EndChar

StartChar: less
Encoding: 60 60 89
Width: 560
Flags: HMW
LayerCount: 2
Fore
SplineSet
60 365 m 5
 60 430 l 5
 500 600 l 5
 500 535 l 5
 60 365 l 5
60 345 m 5
 60 410 l 5
 500 240 l 5
 500 175 l 5
 60 345 l 5
EndSplineSet
EndChar

StartChar: backslash
Encoding: 92 92 91
Width: 520
Flags: HMW
LayerCount: 2
Fore
SplineSet
104 780 m 5
 480 -150 l 5
 411 -150 l 5
 40 780 l 5
 104 780 l 5
EndSplineSet
EndChar

StartChar: bracketleft
Encoding: 91 91 92
Width: 325
Flags: HMW
LayerCount: 2
Fore
SplineSet
295 -150 m 5
 55 -150 l 5
 55 -95 l 5
 295 -95 l 5
 295 -150 l 5
295 725 m 5
 55 725 l 5
 55 780 l 5
 295 780 l 5
 295 725 l 5
145 780 m 5
 145 -150 l 5
 55 -150 l 5
 55 780 l 5
 145 780 l 5
EndSplineSet
EndChar

StartChar: braceleft
Encoding: 123 123 93
Width: 272
VWidth: 1155
Flags: HMW
LayerCount: 2
Fore
SplineSet
242 780 m 5
 242 733 l 5
 180 733 148 710 148 647 c 4
 148 571 182 531 182 431 c 4
 182 348 129 310 55 290 c 5
 55 340 l 5
 85 350 115 355 115 396 c 4
 115 459 55 504 55 641 c 4
 55 730 97 780 242 780 c 5
242 -150 m 1
 97 -150 55 -99 55 -10 c 0
 55 127 115 172 115 235 c 0
 115 276 85 280 55 290 c 1
 55 340 l 1
 129 320 182 283 182 200 c 0
 182 100 148 60 148 -16 c 0
 148 -79 180 -103 242 -103 c 1
 242 -150 l 1
EndSplineSet
EndChar

StartChar: bar
Encoding: 124 124 96
Width: 300
VWidth: 1155
Flags: HMW
LayerCount: 2
Fore
SplineSet
105 780 m 5
 195 780 l 5
 195 -250 l 5
 105 -250 l 5
 105 780 l 5
EndSplineSet
EndChar

StartChar: cent
Encoding: 162 162 98
Width: 548
VWidth: 1155
Flags: HMW
LayerCount: 2
Fore
SplineSet
305.946289062 615 m 5
 360.946289062 615 l 5
 260.946289062 -85 l 5
 205.946289062 -85 l 5
 305.946289062 615 l 5
EndSplineSet
Refer: 40 99 S 1 0 0 1 0 0 2
EndChar

StartChar: sterling
Encoding: 163 163 99
Width: 530
VWidth: 1155
Flags: HMW
LayerCount: 2
Fore
SplineSet
413 385 m 1
 413 330 l 1
 -37 330 l 1
 -37 385 l 1
 413 385 l 1
550 157 m 1
 550 12 469 -30 380 -30 c 0
 243 -30 198 30 135 30 c 0
 94 30 79 10 69 -20 c 1
 40 -20 l 1
 60 54 87 97 170 97 c 0
 270 97 310 63 386 63 c 0
 449 63 503 95 503 157 c 1
 550 157 l 1
469 662 m 1
 558 606 l 1
 558 558 523 540 494 540 c 0
 467 540 437 561 437 598 c 0
 437 634 469 639 469 662 c 1
558 606 m 1
 469 662 l 1
 469 689 406 718 332 718 c 4
 213 718 177 634 177 560 c 1
 66 550 l 1
 66 690 171 760 332 760 c 4
 484 760 558 688 558 606 c 1
66 550 m 1
 177 560 l 1
 177 461 233 395 233 320 c 0
 233 140 81 165 64 -20 c 1
 20 -20 l 1
 1 119 147 197 147 261 c 0
 147 375 66 435 66 550 c 1
EndSplineSet
EndChar

StartChar: section
Encoding: 167 167 101
Width: 534
VWidth: 1155
Flags: HMW
LayerCount: 2
Fore
SplineSet
47 608 m 1
 125 634 l 1
 125 518 468 538 468 375 c 4
 468 323 444 276 390 240 c 1
 346 260 l 1
 370 282 382 313 382 343 c 0
 382 474 47 426 47 608 c 1
110 102 m 1
 21 148 l 1
 21 196 56 224 85 224 c 0
 112 224 142 203 142 166 c 0
 142 130 110 125 110 102 c 1
460 142 m 1
 382 116 l 1
 382 232 29 212 29 375 c 0
 29 447 63 474 117 510 c 1
 151 490 l 1
 147 478 125 447 125 407 c 0
 125 276 460 324 460 142 c 1
21 148 m 1
 110 102 l 1
 110 69 192 41 244 41 c 0
 307 41 382 69 382 116 c 1
 460 142 l 1
 460 38 350 -10 245 -10 c 0
 137 -10 21 32 21 148 c 1
357 658 m 1
 446 612 l 1
 446 564 411 536 382 536 c 0
 355 536 325 557 325 594 c 0
 325 630 357 635 357 658 c 1
446 612 m 1
 357 658 l 1
 357 691 295 709 243 709 c 0
 180 709 125 681 125 634 c 1
 47 608 l 1
 47 712 137 760 232 760 c 0
 340 760 446 718 446 612 c 1
EndSplineSet
EndChar

StartChar: asciitilde
Encoding: 126 126 104
Width: 688
VWidth: 1155
Flags: HMW
LayerCount: 2
Fore
SplineSet
243 437 m 4
 180 437 157 405 157 343 c 1
 100 343 l 1
 100 458 170 510 249 510 c 0
 369 510 369 416 445 416 c 4
 508 416 531 448 531 510 c 1
 588 510 l 1
 588 395 518 343 439 343 c 0
 302 343 306 437 243 437 c 4
EndSplineSet
EndChar

StartChar: copyright
Encoding: 169 169 105
Width: 870
Flags: HMW
LayerCount: 2
Fore
SplineSet
40 375 m 4
 40 588 218 760 435 760 c 4
 652 760 830 588 830 375 c 4
 830 162 652 -10 435 -10 c 4
 218 -10 40 162 40 375 c 4
100 375 m 4
 100 190 250 39 435 39 c 4
 620 39 770 190 770 375 c 4
 770 560 620 711 435 711 c 4
 250 711 100 560 100 375 c 4
EndSplineSet
Refer: 14 67 N 0.6 0 0 0.6 182 150 2
EndChar

StartChar: registered
Encoding: 174 174 106
Width: 870
Flags: HMW
LayerCount: 2
Fore
SplineSet
40 375 m 0
 40 588 218 760 435 760 c 0
 652 760 830 588 830 375 c 0
 830 162 652 -10 435 -10 c 0
 218 -10 40 162 40 375 c 0
100 375 m 0
 100 190 250 39 435 39 c 0
 620 39 770 190 770 375 c 0
 770 560 620 711 435 711 c 0
 250 711 100 560 100 375 c 0
EndSplineSet
Refer: 29 82 N 0.6 0 0 0.6 198 148 2
EndChar

StartChar: guillemotleft
Encoding: 171 171 108
Width: 695
Flags: HMW
LayerCount: 2
Fore
SplineSet
430.900390625 387.5 m 1
 665 190 l 5
 635 145 l 1
 305 375 l 1
 305 400 l 1
 635 630 l 1
 665 585 l 1
 430.900390625 387.5 l 1
150.900390625 387.5 m 1
 385 190 l 5
 355 145 l 1
 25 375 l 1
 25 400 l 1
 355 630 l 1
 385 585 l 1
 150.900390625 387.5 l 1
EndSplineSet
EndChar

StartChar: mu
Encoding: 181 181 111
Width: 675
VWidth: 1155
Flags: HMW
LayerCount: 2
Fore
SplineSet
261 -143 m 4
 294 -143 317 -167 317 -201 c 4
 317 -236 284 -260 246 -260 c 5
 207 -162 l 5
 227 -162 226 -143 261 -143 c 4
120 -122 m 5
 120 321 l 1
 170 321 l 1
 170 -119 l 5
 120 -122 l 5
120 -122 m 5
 170 -119 l 5
 170 -156 194 -162 207 -162 c 5
 246 -260 l 5
 184 -260 120 -211 120 -122 c 5
EndSplineSet
Refer: 58 117 N 1 0 0 1 0 0 2
EndChar

StartChar: asciicircum
Encoding: 94 94 113
Width: 545
Flags: HMW
LayerCount: 2
Fore
SplineSet
305 770 m 1
 305 743 l 5
 240 743 l 5
 240 770 l 1
 305 770 l 1
230 750 m 5
 305 770 l 1
 495 580 l 1
 460 560 l 1
 230 750 l 5
240 770 m 1
 315 750 l 5
 85 560 l 1
 50 580 l 1
 240 770 l 1
EndSplineSet
EndChar

StartChar: degree
Encoding: 176 176 115
Width: 320
Flags: HMW
LayerCount: 2
Fore
SplineSet
40 680 m 0
 40 746 94 800 160 800 c 0
 226 800 280 746 280 680 c 0
 280 614 226 560 160 560 c 0
 94 560 40 614 40 680 c 0
95 680 m 0
 95 643 123 615 160 615 c 4
 197 615 225 643 225 680 c 0
 225 717 197 745 160 745 c 4
 123 745 95 717 95 680 c 0
EndSplineSet
EndChar

StartChar: onequarter
Encoding: 188 188 119
Width: 1000
Flags: HMW
LayerCount: 2
Fore
SplineSet
701 750 m 1
 765 750 l 1
 304 0 l 1
 235 0 l 1
 701 750 l 1
EndSplineSet
Refer: 6 52 S 0.6 0 0 0.6 535 32 2
Refer: 3 49 N 0.6 0 0 0.6 107 456 2
EndChar

StartChar: onehalf
Encoding: 189 189 120
Width: 1000
Flags: HMW
LayerCount: 2
Fore
SplineSet
701 750 m 1
 765 750 l 1
 304 0 l 1
 235 0 l 1
 701 750 l 1
EndSplineSet
Refer: 4 50 S 0.6 0 0 0.6 576 17 2
Refer: 3 49 N 0.6 0 0 0.6 107 456 2
EndChar

StartChar: threequarters
Encoding: 190 190 121
Width: 1000
Flags: HMW
LayerCount: 2
Fore
SplineSet
701 750 m 1
 765 750 l 1
 304 0 l 1
 235 0 l 1
 701 750 l 1
EndSplineSet
Refer: 6 52 S 0.6 0 0 0.6 535 32 2
Refer: 5 51 N 0.6 0 0 0.6 65 457 2
EndChar

StartChar: grave
Encoding: 96 96 123
Width: 395
Flags: HMW
LayerCount: 2
Fore
SplineSet
180 720 m 6
 161.021484375 720.643554688 145 736 145 755 c 4
 145 774 162.190429688 794.720703125 190 788 c 6
 430 730 l 5
 425 710 l 5
 180 720 l 6
EndSplineSet
EndChar

StartChar: acute
Encoding: 180 180 124
Width: 395
Flags: HMW
LayerCount: 2
Fore
SplineSet
195 720 m 6
 -50 710 l 5
 -55 730 l 5
 185 788 l 6
 212.809570312 794.720703125 230 774 230 755 c 4
 230 736 213.978515625 720.643554688 195 720 c 6
EndSplineSet
EndChar

StartChar: cedilla
Encoding: 184 184 128
Width: 550
Flags: HMW
LayerCount: 2
Fore
SplineSet
167 -99.01171875 m 1
 277 40.98828125 l 1
 347 40.98828125 l 1
 237 -99.01171875 l 1
 167 -99.01171875 l 1
167 -99.01171875 m 1
 217 -60 l 1
 328 -60 400 -90 400 -140 c 1
 339 -150 l 1
 339 -116.76171875 292 -99.01171875 167 -99.01171875 c 1
181 -198 m 5
 290 -208 339 -174 339 -150 c 1
 400 -140 l 1
 400 -190 352 -250 181 -240 c 5
 181 -198 l 5
EndSplineSet
EndChar

StartChar: AE
Encoding: 198 198 526
Width: 1197
Flags: HMW
LayerCount: 2
Fore
SplineSet
290 275 m 1
 640 275 l 1
 640 220 l 1
 290 220 l 1
 290 275 l 1
470 55 m 1
 800 55 l 1
 800 0 l 1
 470 0 l 1
 470 55 l 1
0 55 m 1
 280 55 l 1
 280 0 l 1
 0 0 l 1
 0 55 l 1
596 750 m 1
 665 750 l 1
 149 0 l 1
 75 0 l 1
 596 750 l 1
EndSplineSet
Refer: 16 69 N 1 0 0 1 460 0 2
EndChar

StartChar: ae
Encoding: 230 230 529
Width: 736
VWidth: 1155
Flags: HMW
LayerCount: 2
Fore
SplineSet
361 250 m 1
 462 270 l 1
 462 146 497 39 606 39 c 0
 689 39 743 93 768 173 c 1
 819 173 l 1
 793 66 725 -10 594 -10 c 0
 443 -10 361 110 361 250 c 1
438 304 m 1
 762 304 l 1
 762 261 l 1
 438 261 l 1
 438 304 l 1
807 261 m 1
 762 261 l 1
 762 290 l 1
 807 290 l 1
 807 261 l 1
818 261 m 1
 726 261 l 1
 726 364 700 486 601 486 c 0
 492 486 462 374 462 270 c 1
 361 250 l 1
 361 410 440 530 601 530 c 0
 770 530 818 400 818 261 c 1
299 299 m 1
 299 261 l 1
 183 261 142 215 142 138 c 0
 142 71 190 46 240 46 c 0
 308 46 361 79 361 250 c 1
 395 179 l 1
 395 55 326 -10 195 -10 c 4
 106 -10 40 39 40 123 c 0
 40 217 127 299 299 299 c 1
451 367 m 1
 451 271 l 1
 361 273 l 1
 361 377 l 1
 451 367 l 1
70 403 m 1
 70 480 162 530 283 530 c 0
 423 530 451 448 451 367 c 1
 361 367 l 1
 361 434 338 484 258 484 c 0
 204 484 156 465 156 445 c 1
 70 403 l 1
299 299 m 1
 413 299 l 1
 413 261 l 1
 299 261 l 1
 299 299 l 1
184 393 m 0
 184 359 163 340 129 340 c 0
 98 340 70 359 70 403 c 1
 156 445 l 1
 156 427 184 432 184 393 c 0
EndSplineSet
EndChar

StartChar: perthousand
Encoding: 8240 8240 537
Width: 1470
Flags: HMW
LayerCount: 2
Fore
SplineSet
1145 210 m 4
 1145 108 1161 40 1235 40 c 4
 1309 40 1325 108 1325 210 c 4
 1325 312 1309 380 1235 380 c 4
 1161 380 1145 312 1145 210 c 4
1035 210 m 4
 1035 353 1122 430 1235 430 c 4
 1348 430 1435 353 1435 210 c 4
 1435 67 1328 -10 1235 -10 c 4
 1122 -10 1035 67 1035 210 c 4
675 210 m 4
 675 108 691 40 765 40 c 4
 839 40 855 108 855 210 c 4
 855 312 839 380 765 380 c 4
 691 380 675 312 675 210 c 4
565 210 m 4
 565 353 652 430 765 430 c 4
 878 430 965 353 965 210 c 4
 965 67 858 -10 765 -10 c 4
 652 -10 565 67 565 210 c 4
701 750 m 5
 765 750 l 5
 304 0 l 5
 235 0 l 5
 701 750 l 5
145 540 m 4
 145 438 161 370 235 370 c 4
 309 370 325 438 325 540 c 4
 325 642 309 710 235 710 c 4
 161 710 145 642 145 540 c 4
35 540 m 4
 35 683 122 760 235 760 c 4
 348 760 435 683 435 540 c 4
 435 397 328 320 235 320 c 4
 122 320 35 397 35 540 c 4
EndSplineSet
EndChar

StartChar: uni2031
Encoding: 8241 8241 538
Width: 1950
Flags: HMW
LayerCount: 2
Fore
SplineSet
1625 210 m 4
 1625 108 1641 40 1715 40 c 4
 1789 40 1805 108 1805 210 c 4
 1805 312 1789 380 1715 380 c 4
 1641 380 1625 312 1625 210 c 4
1515 210 m 4
 1515 353 1602 430 1715 430 c 4
 1828 430 1915 353 1915 210 c 4
 1915 67 1808 -10 1715 -10 c 4
 1602 -10 1515 67 1515 210 c 4
1145 210 m 0
 1145 108 1161 40 1235 40 c 0
 1309 40 1325 108 1325 210 c 0
 1325 312 1309 380 1235 380 c 0
 1161 380 1145 312 1145 210 c 0
1035 210 m 0
 1035 353 1122 430 1235 430 c 0
 1348 430 1435 353 1435 210 c 0
 1435 67 1328 -10 1235 -10 c 0
 1122 -10 1035 67 1035 210 c 0
675 210 m 0
 675 108 691 40 765 40 c 0
 839 40 855 108 855 210 c 0
 855 312 839 380 765 380 c 0
 691 380 675 312 675 210 c 0
565 210 m 0
 565 353 652 430 765 430 c 0
 878 430 965 353 965 210 c 0
 965 67 858 -10 765 -10 c 0
 652 -10 565 67 565 210 c 0
701 750 m 1
 765 750 l 1
 304 0 l 1
 235 0 l 1
 701 750 l 1
145 540 m 0
 145 438 161 370 235 370 c 0
 309 370 325 438 325 540 c 0
 325 642 309 710 235 710 c 0
 161 710 145 642 145 540 c 0
35 540 m 0
 35 683 122 760 235 760 c 0
 348 760 435 683 435 540 c 0
 435 397 328 320 235 320 c 0
 122 320 35 397 35 540 c 0
EndSplineSet
EndChar

StartChar: uniFB00
Encoding: 64256 64256 542
Width: 750
VWidth: 1155
Flags: HMW
LayerCount: 2
Fore
SplineSet
835 699 m 1
 739 738 l 1
 739 750 721 765 679 765 c 0
 589 765 560 697 560 570 c 1
 470 592 l 1
 470 723 537 800 667 800 c 0
 768 800 835 756 835 699 c 1
718 681 m 0
 718 711 739 718 739 738 c 1
 835 699 l 1
 835 656 811 633 776 633 c 0
 741 633 718 653 718 681 c 0
380 55 m 1
 470 55 l 1
 470 0 l 1
 380 0 l 1
 380 55 l 1
560 55 m 1
 680 55 l 1
 680 0 l 1
 560 0 l 1
 560 55 l 1
380 520 m 1
 700 520 l 1
 700 465 l 1
 380 465 l 1
 380 520 l 1
470 592 m 1
 560 570 l 1
 560 0 l 1
 470 0 l 1
 470 592 l 1
505 659 m 1
 409 698 l 1
 409 710 381 725 339 725 c 0
 249 725 210 657 210 530 c 1
 120 552 l 1
 120 683 207 770 337 770 c 0
 438 770 505 716 505 659 c 1
388 641 m 0
 388 671 409 678 409 698 c 1
 505 659 l 1
 505 616 481 593 446 593 c 0
 411 593 388 613 388 641 c 0
30 55 m 1
 120 55 l 1
 120 0 l 1
 30 0 l 1
 30 55 l 1
210 55 m 1
 330 55 l 1
 330 0 l 1
 210 0 l 1
 210 55 l 1
30 520 m 1
 380 520 l 1
 380 465 l 1
 30 465 l 1
 30 520 l 1
120 552 m 1
 210 530 l 1
 210 0 l 1
 120 0 l 1
 120 552 l 1
EndSplineSet
LCarets2: 1 0
Ligature2: "Not your mama's contextual ligatures" f f
EndChar

StartChar: uniFB01
Encoding: 64257 64257 543
Width: 645
VWidth: 1155
Flags: HMW
LayerCount: 2
Fore
SplineSet
360 55 m 1
 450 55 l 1
 450 0 l 1
 360 0 l 1
 360 55 l 1
540 55 m 1
 630 55 l 1
 630 0 l 1
 540 0 l 1
 540 55 l 1
360 520 m 1
 450 520 l 1
 450 465 l 1
 360 465 l 1
 360 520 l 1
450 520 m 1
 540 520 l 1
 540 0 l 1
 450 0 l 1
 450 520 l 1
525 679 m 1
 429 718 l 1
 429 730 411 745 349 745 c 0
 249 745 210 687 210 550 c 5
 120 572 l 1
 120 703 187 790 337 790 c 0
 458 790 525 736 525 679 c 1
408 661 m 0
 408 691 429 698 429 718 c 1
 525 679 l 1
 525 636 501 613 466 613 c 0
 431 613 408 633 408 661 c 0
30 55 m 1
 120 55 l 1
 120 0 l 1
 30 0 l 1
 30 55 l 1
210 55 m 1
 330 55 l 1
 330 0 l 1
 210 0 l 1
 210 55 l 1
30 520 m 1
 360 520 l 1
 360 465 l 1
 30 465 l 1
 30 520 l 1
120 572 m 1
 210 550 l 1
 210 0 l 1
 120 0 l 1
 120 572 l 1
EndSplineSet
LCarets2: 1 0
Ligature2: "Not your mama's contextual ligatures" f i
EndChar

StartChar: uniFB02
Encoding: 64258 64258 544
Width: 680
VWidth: 1155
Flags: HMW
LayerCount: 2
Fore
SplineSet
395 55 m 5
 485 55 l 5
 485 0 l 5
 395 0 l 5
 395 55 l 5
575 55 m 5
 665 55 l 5
 665 0 l 5
 575 0 l 5
 575 55 l 5
485 730 m 5
 575 800 l 5
 575 0 l 5
 485 0 l 5
 485 730 l 5
525 679 m 1
 429 718 l 1
 429 730 411 745 349 745 c 0
 239 745 210 677 210 550 c 1
 120 572 l 1
 120 703 197 790 347 790 c 0
 468 790 525 736 525 679 c 1
408 661 m 0
 408 691 429 698 429 718 c 1
 525 679 l 1
 525 636 501 613 466 613 c 0
 431 613 408 633 408 661 c 0
30 55 m 1
 120 55 l 1
 120 0 l 1
 30 0 l 1
 30 55 l 1
210 55 m 1
 330 55 l 1
 330 0 l 1
 210 0 l 1
 210 55 l 1
30 520 m 1
 350 520 l 1
 350 465 l 1
 30 465 l 1
 30 520 l 1
120 572 m 1
 210 550 l 1
 210 0 l 1
 120 0 l 1
 120 572 l 1
EndSplineSet
Ligature2: "Not your mama's contextual ligatures" f l
EndChar

StartChar: uniFB03
Encoding: 64259 64259 545
Width: 995
VWidth: 1155
Flags: HMW
LayerCount: 2
Fore
SplineSet
120 572 m 1
 210 550 l 1
 210 0 l 1
 120 0 l 1
 120 572 l 1
505 659 m 1
 409 698 l 1
 409 710 381 725 339 725 c 0
 249 725 210 657 210 530 c 1
 120 552 l 1
 120 683 207 770 337 770 c 0
 438 770 505 716 505 659 c 1
388 641 m 0
 388 671 409 678 409 698 c 1
 505 659 l 1
 505 616 481 593 446 593 c 0
 411 593 388 613 388 641 c 0
30 55 m 1
 120 55 l 1
 120 0 l 1
 30 0 l 1
 30 55 l 1
210 55 m 1
 330 55 l 1
 330 0 l 1
 210 0 l 1
 210 55 l 1
30 520 m 1
 380 520 l 1
 380 465 l 1
 30 465 l 1
 30 520 l 1
710 55 m 1
 800 55 l 1
 800 0 l 1
 710 0 l 1
 710 55 l 1
890 55 m 1
 980 55 l 1
 980 0 l 1
 890 0 l 1
 890 55 l 1
710 520 m 1
 800 520 l 1
 800 465 l 1
 710 465 l 1
 710 520 l 1
800 520 m 1
 890 520 l 1
 890 0 l 1
 800 0 l 1
 800 520 l 1
875 679 m 1
 779 718 l 1
 779 730 761 765 699 765 c 0
 589 765 560 677 560 550 c 1
 470 572 l 1
 470 703 547 800 697 800 c 4
 818 800 875 736 875 679 c 1
758 661 m 0
 758 691 779 698 779 718 c 1
 875 679 l 1
 875 636 851 613 816 613 c 0
 781 613 758 633 758 661 c 0
380 55 m 1
 470 55 l 1
 470 0 l 1
 380 0 l 1
 380 55 l 1
560 55 m 1
 680 55 l 1
 680 0 l 1
 560 0 l 1
 560 55 l 1
380 520 m 1
 710 520 l 1
 710 465 l 1
 380 465 l 1
 380 520 l 1
470 572 m 1
 560 550 l 1
 560 0 l 1
 470 0 l 1
 470 572 l 1
EndSplineSet
LCarets2: 2 0 0
Ligature2: "Not your mama's contextual ligatures" f f i
EndChar

StartChar: uniFB04
Encoding: 64260 64260 546
Width: 995
VWidth: 1155
Flags: HMW
LayerCount: 2
Fore
SplineSet
710 55 m 1
 800 55 l 1
 800 0 l 1
 710 0 l 1
 710 55 l 1
890 55 m 1
 980 55 l 1
 980 0 l 1
 890 0 l 1
 890 55 l 1
800 730 m 1
 890 800 l 1
 890 0 l 1
 800 0 l 1
 800 730 l 1
120 572 m 1
 210 550 l 1
 210 0 l 1
 120 0 l 1
 120 572 l 1
505 659 m 1
 409 698 l 1
 409 710 381 725 339 725 c 0
 249 725 210 657 210 530 c 1
 120 552 l 1
 120 683 207 770 337 770 c 0
 438 770 505 716 505 659 c 1
388 641 m 0
 388 671 409 678 409 698 c 1
 505 659 l 1
 505 616 481 593 446 593 c 0
 411 593 388 613 388 641 c 0
30 55 m 1
 120 55 l 1
 120 0 l 1
 30 0 l 1
 30 55 l 1
210 55 m 1
 330 55 l 1
 330 0 l 1
 210 0 l 1
 210 55 l 1
30 520 m 1
 380 520 l 1
 380 465 l 1
 30 465 l 1
 30 520 l 1
875 679 m 1
 779 718 l 1
 779 730 761 765 699 765 c 0
 589 765 560 677 560 550 c 1
 470 572 l 1
 470 703 547 800 697 800 c 4
 818 800 875 736 875 679 c 1
758 661 m 0
 758 691 779 698 779 718 c 1
 875 679 l 1
 875 636 851 613 816 613 c 0
 781 613 758 633 758 661 c 0
380 55 m 1
 470 55 l 1
 470 0 l 1
 380 0 l 1
 380 55 l 1
560 55 m 1
 680 55 l 1
 680 0 l 1
 560 0 l 1
 560 55 l 1
380 520 m 1
 710 520 l 1
 710 465 l 1
 380 465 l 1
 380 520 l 1
470 572 m 1
 560 550 l 1
 560 0 l 1
 470 0 l 1
 470 572 l 1
EndSplineSet
LCarets2: 2 0 0
Ligature2: "Not your mama's contextual ligatures" f f l
EndChar

StartChar: uniFFFD
Encoding: 65533 65533 547
Width: 775
Flags: HW
LayerCount: 2
Fore
SplineSet
435 405 m 1
 511 405 585 451 585 550 c 0
 585 649 511 695 435 695 c 1
 435 750 l 1
 616 750 685 660 685 550 c 0
 685 440 626 364 435 364 c 1
 435 405 l 1
245 750 m 1
 435 750 l 1
 435 695 l 1
 245 695 l 1
 245 750 l 1
245 405 m 1
 455 405 l 1
 455 345 l 1
 245 345 l 1
 245 405 l 1
40 55 m 1
 150 55 l 1
 150 0 l 1
 40 0 l 1
 40 55 l 1
40 750 m 1
 150 750 l 1
 150 695 l 1
 40 695 l 1
 40 750 l 1
150 750 m 1
 245 750 l 1
 245 0 l 1
 150 0 l 1
 150 750 l 1
245 55 m 1
 355 55 l 1
 355 0 l 1
 245 0 l 1
 245 55 l 1
755 0 m 25
 680 0 l 6
 467.03125 0 651.256835938 345 425 345 c 1
 445 381 l 1
 768.294921875 381 593.228515625 55 706 55 c 6
 755 55 l 1
 755 0 l 25
EndSplineSet
EndChar
